<svg width="51" height="21" viewBox="0 0 51 21" fill="none" xmlns="http://www.w3.org/2000/svg">
<path fill-rule="evenodd" clip-rule="evenodd" d="M37.1837 2.76144C36.3744 2.44741 35.1064 2.11041 33.5227 2.11041C29.4866 2.11041 26.6435 4.21282 26.6192 7.22581C26.5965 9.45309 28.6489 10.6955 30.1984 11.437C31.7884 12.1968 32.3228 12.6814 32.3152 13.3598C32.3052 14.3988 31.0455 14.8735 29.8715 14.8735C28.2365 14.8735 27.368 14.6386 26.0264 14.0598L25.5001 13.8135L24.9268 17.2834C25.8808 17.7161 27.6451 18.091 29.4769 18.1104C33.7707 18.1104 36.5581 16.0322 36.5898 12.8146C36.6052 11.0513 35.5169 9.7094 33.1603 8.60316C31.7325 7.8861 30.8582 7.40761 30.8674 6.68152C30.8674 6.03723 31.6075 5.34828 33.2067 5.34828C34.5424 5.32682 35.51 5.6281 36.264 5.94213L36.63 6.121L37.1837 2.76144ZM47.6586 2.39557H44.5023C43.5245 2.39557 42.7928 2.67159 42.3634 3.68099L36.2969 17.8863H40.5862C40.5862 17.8863 41.2875 15.9763 41.4461 15.5569C41.6665 15.5569 42.704 15.5584 43.8037 15.56C45.0433 15.5617 46.3618 15.5636 46.6775 15.5636C46.7997 16.1062 47.1744 17.8863 47.1744 17.8863H50.9647L47.6586 2.39557ZM42.6217 12.3865C42.9595 11.4934 44.2491 8.05336 44.2491 8.05336C44.2377 8.07295 44.3127 7.8716 44.4167 7.5924L44.4174 7.59053L44.4177 7.58984C44.5326 7.28137 44.6827 6.87874 44.7907 6.57394L45.0668 7.91036C45.0668 7.91036 45.8489 11.6104 46.0124 12.3863L42.6217 12.3865ZM20.839 2.38092L18.2852 17.8815H22.3682L24.9238 2.38092H20.839ZM14.8598 2.39166L10.8606 12.9619L10.4345 10.8138C10.4344 10.8134 10.4343 10.8129 10.4341 10.8125L9.00213 3.69052C8.75487 2.70899 8.03772 2.4161 7.15055 2.3819H0.563851L0.511719 2.7044C2.11399 3.10558 3.54677 3.68446 4.80243 4.40458L8.43405 17.8676L12.7558 17.8625L19.1866 2.39166H14.8598Z" fill="white"/>
</svg>
