<svg width="25" height="25" viewBox="0 0 25 25" fill="none" xmlns="http://www.w3.org/2000/svg">
<g filter="url(#filter0_b_1790_10995)">
<path fill-rule="evenodd" clip-rule="evenodd" d="M13.2533 2.48503C14.4539 1.28594 16.0813 0.612427 17.7782 0.612427C19.475 0.612427 21.1024 1.28594 22.303 2.48503C22.3035 2.48556 22.3041 2.48609 22.3046 2.48662C23.5037 3.6872 24.1772 5.31464 24.1772 7.01147C24.1772 8.70829 23.5037 10.3357 22.3046 11.5363L15.9822 17.8587C15.2793 18.5616 14.1396 18.5616 13.4366 17.8587C12.7337 17.1557 12.7337 16.016 13.4366 15.3131L19.7574 8.99232C19.7575 8.99221 19.7573 8.99243 19.7574 8.99232C20.2821 8.46677 20.5772 7.75413 20.5772 7.01147C20.5772 6.26899 20.2826 5.55686 19.7582 5.03135C19.2327 4.50695 18.5206 4.21243 17.7782 4.21243C17.0355 4.21243 16.3232 4.50715 15.7976 5.03186C15.7975 5.03198 15.7978 5.03175 15.7976 5.03186L11.2564 9.57312C10.5534 10.2761 9.41375 10.2761 8.7108 9.57312C8.00786 8.87018 8.00786 7.73048 8.7108 7.02754L13.2533 2.48503Z" fill="white" fill-opacity="0.2"/>
<path fill-rule="evenodd" clip-rule="evenodd" d="M8.24996 10.0351C8.9529 10.7381 8.9529 11.8778 8.24996 12.5807L4.9979 15.8328C4.99774 15.8329 4.99806 15.8326 4.9979 15.8328C4.99779 15.8329 4.99721 15.8335 4.99711 15.8336C4.47267 16.3591 4.17812 17.0712 4.17812 17.8136C4.17812 18.5561 4.47265 19.2681 4.99705 19.7936C5.52256 20.3181 6.23469 20.6127 6.97717 20.6127C7.71961 20.6127 8.43172 20.3181 8.95722 19.7937C8.95728 19.7936 8.95716 19.7938 8.95722 19.7937C8.95743 19.7935 8.95781 19.7931 8.95802 19.7929L10.4916 18.2593C11.1945 17.5564 12.3342 17.5564 13.0372 18.2593C13.7401 18.9623 13.7401 20.102 13.0372 20.8049L11.502 22.3401C10.3014 23.5392 8.67399 24.2127 6.97717 24.2127C5.28034 24.2127 3.6529 23.5392 2.45231 22.3401C2.45228 22.34 2.45235 22.3401 2.45231 22.3401C2.45182 22.3396 2.45122 22.339 2.45073 22.3385M2.44946 22.3372C1.25117 21.1368 0.578125 19.5099 0.578125 17.8136C0.578125 16.1168 1.25164 14.4894 2.45073 13.2888L5.70437 10.0351C6.40732 9.3322 7.54701 9.3322 8.24996 10.0351" fill="white" fill-opacity="0.2"/>
<path fill-rule="evenodd" clip-rule="evenodd" d="M18.3188 6.55485C19.0167 7.26281 19.0085 8.40248 18.3006 9.10037L8.91753 18.3498C8.20957 19.0477 7.0699 19.0395 6.37201 18.3316C5.67413 17.6236 5.6823 16.4839 6.39026 15.7861L15.7733 6.5366C16.4813 5.83871 17.6209 5.84688 18.3188 6.55485Z" fill="white" fill-opacity="0.2"/>
</g>
<defs>
<filter id="filter0_b_1790_10995" x="-35.4219" y="-35.3876" width="95.5996" height="95.6003" filterUnits="userSpaceOnUse" color-interpolation-filters="sRGB">
<feFlood flood-opacity="0" result="BackgroundImageFix"/>
<feGaussianBlur in="BackgroundImageFix" stdDeviation="18"/>
<feComposite in2="SourceAlpha" operator="in" result="effect1_backgroundBlur_1790_10995"/>
<feBlend mode="normal" in="SourceGraphic" in2="effect1_backgroundBlur_1790_10995" result="shape"/>
</filter>
</defs>
</svg>
