<svg width="27" height="41" viewBox="0 0 27 41" fill="none" xmlns="http://www.w3.org/2000/svg">
<path d="M5.47705 30.1124C5.45738 29.9393 5.47705 29.9651 5.47705 30.1124C5.80689 33.0155 8.27113 35.2709 11.2624 35.2709C14.4783 35.2709 17.0853 32.6639 17.0853 29.4481V9.30518H21.9858V29.4481C21.9858 35.3704 17.1848 40.1714 11.2624 40.1714C5.55561 40.1714 0.88989 35.7134 0.557955 30.09L0.539062 28.3758C0.539062 27.5083 1.24227 26.8051 2.10973 26.8051C3.94874 26.8051 5.47705 28.2734 5.47705 30.1124Z" fill="url(#paint0_linear_1362_7943)"/>
<path fill-rule="evenodd" clip-rule="evenodd" d="M25.4151 6.05108L19.5355 0.171387L13.6558 6.05108C12.6042 7.1026 12.6043 8.80744 13.6558 9.85895C14.0764 10.2796 14.7583 10.2796 15.1789 9.85895L17.0853 7.95257V14.8122C17.0853 17.2467 16.3303 18.9617 15.3202 20.0451C14.3129 21.1255 12.9071 21.7389 11.2624 21.7389C9.61778 21.7389 8.21189 21.1255 7.2046 20.0451C6.19453 18.9617 5.43954 17.2467 5.43954 14.8122V10.5564C5.43954 8.57859 3.83622 6.97527 1.85842 6.97527C1.12976 6.97527 0.539062 7.56597 0.539062 8.29463V14.8122C0.539062 18.2854 1.63621 21.2588 3.62029 23.3868C5.60717 25.5179 8.33779 26.6394 11.2624 26.6394C14.187 26.6394 16.9177 25.5179 18.9045 23.3868C20.8886 21.2588 21.9858 18.2854 21.9858 14.8122V7.95274L23.892 9.85895C24.3126 10.2796 24.9945 10.2796 25.4151 9.85895C26.4666 8.80744 26.4666 7.1026 25.4151 6.05108Z" fill="url(#paint1_linear_1362_7943)"/>
<defs>
<linearGradient id="paint0_linear_1362_7943" x1="11.2621" y1="24.4168" x2="11.262" y2="41.9993" gradientUnits="userSpaceOnUse">
<stop stop-color="white" stop-opacity="0.6"/>
<stop offset="1" stop-color="white" stop-opacity="0.7"/>
</linearGradient>
<linearGradient id="paint1_linear_1362_7943" x1="13.3714" y1="0.171387" x2="13.3714" y2="26.6396" gradientUnits="userSpaceOnUse">
<stop stop-color="white"/>
<stop offset="1" stop-color="#FAEAFF"/>
</linearGradient>
</defs>
</svg>
