<svg width="29" height="29" viewBox="0 0 29 29" fill="none" xmlns="http://www.w3.org/2000/svg">
<path d="M20.811 19.7475C20.6921 19.7476 20.575 19.7189 20.4696 19.6638C20.3643 19.6087 20.2738 19.5289 20.206 19.4313C19.9842 19.1113 19.6883 18.8498 19.3435 18.6691C18.9987 18.4883 18.6153 18.3936 18.226 18.3931H16.0673C15.678 18.3936 15.2946 18.4883 14.9498 18.6691C14.605 18.8498 14.3091 19.1113 14.0873 19.4313C14.036 19.5189 13.9672 19.5949 13.8851 19.6546C13.803 19.7143 13.7094 19.7564 13.6102 19.7781C13.5111 19.7999 13.4085 19.8009 13.3089 19.7811C13.2094 19.7613 13.115 19.7212 13.0317 19.6631C12.9485 19.605 12.8781 19.5304 12.8251 19.4438C12.7721 19.3573 12.7375 19.2607 12.7237 19.1601C12.7098 19.0595 12.7169 18.9572 12.7445 18.8595C12.7722 18.7618 12.8197 18.6709 12.8842 18.5925C13.2411 18.0768 13.7179 17.6554 14.2735 17.3644C14.8291 17.0734 15.447 16.9216 16.0742 16.9219H18.2398C18.867 16.9216 19.4849 17.0734 20.0405 17.3644C20.5961 17.6554 21.0728 18.0768 21.4298 18.5925C21.5061 18.7024 21.5509 18.831 21.5595 18.9645C21.5681 19.0981 21.5402 19.2314 21.4787 19.3502C21.4171 19.469 21.3244 19.5688 21.2104 19.6388C21.0964 19.7088 20.9654 19.7464 20.8317 19.7475H20.811Z" fill="#D354FF" stroke="#D354FF" stroke-width="0.2"/>
<path d="M17.1484 16.0918C16.5366 16.0918 15.9384 15.9104 15.4296 15.5704C14.9209 15.2305 14.5243 14.7473 14.2902 14.182C14.056 13.6167 13.9948 12.9946 14.1141 12.3945C14.2335 11.7944 14.5282 11.2431 14.9608 10.8104C15.3935 10.3778 15.9447 10.0831 16.5449 9.96374C17.145 9.84437 17.7671 9.90564 18.3324 10.1398C18.8977 10.374 19.3809 10.7705 19.7208 11.2793C20.0607 11.788 20.2422 12.3862 20.2422 12.998C20.2422 13.8186 19.9162 14.6055 19.336 15.1857C18.7559 15.7658 17.969 16.0918 17.1484 16.0918ZM17.1484 11.3755C16.8275 11.3755 16.5138 11.4707 16.247 11.649C15.9802 11.8273 15.7722 12.0807 15.6494 12.3771C15.5266 12.6736 15.4945 12.9998 15.5571 13.3146C15.6197 13.6293 15.7742 13.9184 16.0012 14.1453C16.2281 14.3722 16.5172 14.5268 16.8319 14.5894C17.1466 14.652 17.4729 14.6198 17.7693 14.497C18.0658 14.3742 18.3192 14.1663 18.4975 13.8995C18.6758 13.6326 18.7709 13.3189 18.7709 12.998C18.7655 12.5707 18.5924 12.1626 18.2889 11.8616C17.9854 11.5607 17.5758 11.3911 17.1484 11.3893V11.3755Z" fill="#D354FF" stroke="#D354FF" stroke-width="0.2"/>
<path d="M9.08477 21.4273C8.88967 21.4273 8.70256 21.3498 8.5646 21.2118C8.42664 21.0739 8.34914 20.8867 8.34914 20.6916V8.96291C8.33923 8.86079 8.3508 8.75774 8.38309 8.66036C8.41537 8.56298 8.46767 8.47343 8.53663 8.39746C8.60558 8.32149 8.68966 8.26079 8.78347 8.21925C8.87728 8.17771 8.97873 8.15625 9.08133 8.15625C9.18392 8.15625 9.28538 8.17771 9.37919 8.21925C9.47299 8.26079 9.55708 8.32149 9.62603 8.39746C9.69498 8.47343 9.74728 8.56298 9.77957 8.66036C9.81186 8.75774 9.82342 8.86079 9.81351 8.96291V20.6916C9.81352 20.8856 9.73696 21.0716 9.60049 21.2094C9.46402 21.3472 9.27867 21.4255 9.08477 21.4273Z" fill="#D354FF" stroke="#D354FF" stroke-width="0.2"/>
<path d="M20.8097 25.8281H9.08094C8.40627 25.829 7.73804 25.6968 7.11455 25.439C6.49106 25.1813 5.92455 24.803 5.44749 24.326C4.97042 23.8489 4.59217 23.2824 4.3344 22.6589C4.07663 22.0354 3.94441 21.3672 3.94532 20.6925V8.96375C3.94532 7.6017 4.48639 6.29543 5.44951 5.33232C6.41262 4.3692 7.71889 3.82813 9.08094 3.82813H20.8097C21.4844 3.82722 22.1526 3.95944 22.7761 4.21721C23.3996 4.47498 23.9661 4.85323 24.4431 5.3303C24.9202 5.80737 25.2985 6.37387 25.5562 6.99736C25.814 7.62086 25.9462 8.28908 25.9453 8.96375V20.6925C25.9453 22.0546 25.4042 23.3608 24.4411 24.3239C23.478 25.287 22.1717 25.8281 20.8097 25.8281ZM9.08094 5.2925C8.59857 5.2916 8.12077 5.38594 7.67494 5.57012C7.22912 5.75429 6.82404 6.02468 6.48296 6.36577C6.14187 6.70686 5.87148 7.11193 5.6873 7.55776C5.50313 8.00358 5.40879 8.48138 5.40969 8.96375V20.6925C5.40969 21.6644 5.79576 22.5964 6.48296 23.2836C7.17016 23.9708 8.10221 24.3569 9.07406 24.3569H20.8097C21.7815 24.3569 22.7136 23.9708 23.4008 23.2836C24.088 22.5964 24.4741 21.6644 24.4741 20.6925V8.96375C24.4741 7.9919 24.088 7.05985 23.4008 6.37265C22.7136 5.68545 21.7815 5.29938 20.8097 5.29938L9.08094 5.2925Z" fill="#D354FF" stroke="#D354FF" stroke-width="0.2"/>
</svg>
