<svg width="30" height="45" viewBox="0 0 30 45" fill="none" xmlns="http://www.w3.org/2000/svg">
<path d="M6.20815 33.8015C6.18651 33.6111 6.20815 33.6395 6.20815 33.8015C6.57098 36.995 9.28164 39.4759 12.5721 39.4759C16.1095 39.4759 18.9772 36.6082 18.9772 33.0708V10.9136H24.3677V33.0708C24.3677 39.5853 19.0866 44.8664 12.5721 44.8664C6.29457 44.8664 1.16228 39.9626 0.797149 33.7769L0.776367 31.8912C0.776367 30.937 1.5499 30.1635 2.5041 30.1635C4.52701 30.1635 6.20815 31.7786 6.20815 33.8015Z" fill="url(#paint0_linear_1028_6862)"/>
<path fill-rule="evenodd" clip-rule="evenodd" d="M28.14 7.33436L21.6724 0.866699L15.2047 7.33436C14.0481 8.49103 14.0481 10.3664 15.2047 11.523C15.6674 11.9857 16.4175 11.9857 16.8802 11.523L18.9772 9.42601V16.9719C18.9772 19.6498 18.1467 21.5363 17.0357 22.728C15.9276 23.9164 14.3812 24.5912 12.5721 24.5912C10.763 24.5912 9.21648 23.9164 8.10846 22.728C6.99739 21.5363 6.1669 19.6498 6.1669 16.9719V12.2905C6.1669 10.1149 4.40324 8.35122 2.22766 8.35122C1.42613 8.35122 0.776367 9.00099 0.776367 9.80251V16.9719C0.776367 20.7923 1.98323 24.0631 4.16571 26.4039C6.35129 28.7481 9.35496 29.9817 12.5721 29.9817C15.7892 29.9817 18.7928 28.7481 20.9784 26.4039C23.1609 24.0631 24.3677 20.7923 24.3677 16.9719V9.42618L26.4646 11.523C26.9272 11.9857 27.6774 11.9857 28.14 11.523C29.2967 10.3664 29.2967 8.49103 28.14 7.33436Z" fill="url(#paint1_linear_1028_6862)"/>
<defs>
<linearGradient id="paint0_linear_1028_6862" x1="12.5717" y1="27.5364" x2="12.5716" y2="46.8772" gradientUnits="userSpaceOnUse">
<stop stop-color="white" stop-opacity="0.6"/>
<stop offset="1" stop-color="white" stop-opacity="0.7"/>
</linearGradient>
<linearGradient id="paint1_linear_1028_6862" x1="14.892" y1="0.866699" x2="14.892" y2="29.9817" gradientUnits="userSpaceOnUse">
<stop stop-color="white"/>
<stop offset="1" stop-color="#FAEAFF"/>
</linearGradient>
</defs>
</svg>
