<svg width="16" height="17" viewBox="0 0 16 17" fill="none" xmlns="http://www.w3.org/2000/svg">
<path d="M3.77259 8.90674L1.76065 10.9187C1.22848 11.453 0.929688 12.1765 0.929688 12.9306C0.929688 13.6848 1.22848 14.4082 1.76065 14.9425V14.9425C2.295 15.4747 3.01844 15.7735 3.77259 15.7735C4.52674 15.7735 5.25017 15.4747 5.78452 14.9425L6.97877 13.7483" stroke="url(#paint0_linear_1954_34)" stroke-width="1.6" stroke-linecap="round" stroke-linejoin="round"/>
<path d="M10.0775 11.4565H12.0787C12.832 11.4565 13.5544 11.1572 14.0871 10.6245C14.6198 10.0919 14.919 9.36939 14.919 8.61608V8.61608C14.919 7.86276 14.6198 7.1403 14.0871 6.60762C13.5544 6.07495 12.832 5.7757 12.0787 5.7757H9.23828" stroke="url(#paint1_linear_1954_34)" stroke-width="1.6" stroke-linecap="round" stroke-linejoin="round"/>
<path d="M7.92467 1.77258L7.38672 3.92439" stroke="url(#paint2_linear_1954_34)" stroke-width="1.6" stroke-linecap="round" stroke-linejoin="round"/>
<path d="M0.931641 5.00029L3.08344 6.07619" stroke="url(#paint3_linear_1954_34)" stroke-width="1.6" stroke-linecap="round" stroke-linejoin="round"/>
<path d="M3.62109 1.77258L4.697 3.92439" stroke="url(#paint4_linear_1954_34)" stroke-width="1.6" stroke-linecap="round" stroke-linejoin="round"/>
<defs>
<linearGradient id="paint0_linear_1954_34" x1="5.93763" y1="5.57833" x2="1.32085" y2="6.20473" gradientUnits="userSpaceOnUse">
<stop stop-color="#D354FF"/>
<stop offset="1" stop-color="#CA30FF"/>
<stop offset="1" stop-color="#CA30FF"/>
</linearGradient>
<linearGradient id="paint1_linear_1954_34" x1="13.9413" y1="3.02216" x2="9.62813" y2="3.68647" gradientUnits="userSpaceOnUse">
<stop stop-color="#D354FF"/>
<stop offset="1" stop-color="#CA30FF"/>
<stop offset="1" stop-color="#CA30FF"/>
</linearGradient>
<linearGradient id="paint2_linear_1954_34" x1="7.83208" y1="0.729579" x2="7.41457" y2="0.745655" gradientUnits="userSpaceOnUse">
<stop stop-color="#D354FF"/>
<stop offset="1" stop-color="#CA30FF"/>
<stop offset="1" stop-color="#CA30FF"/>
</linearGradient>
<linearGradient id="paint3_linear_1954_34" x1="2.71308" y1="4.47879" x2="1.1855" y2="4.94934" gradientUnits="userSpaceOnUse">
<stop stop-color="#D354FF"/>
<stop offset="1" stop-color="#CA30FF"/>
<stop offset="1" stop-color="#CA30FF"/>
</linearGradient>
<linearGradient id="paint4_linear_1954_34" x1="4.51182" y1="0.729579" x2="3.68048" y2="0.793599" gradientUnits="userSpaceOnUse">
<stop stop-color="#D354FF"/>
<stop offset="1" stop-color="#CA30FF"/>
<stop offset="1" stop-color="#CA30FF"/>
</linearGradient>
</defs>
</svg>
