<svg width="21" height="21" viewBox="0 0 21 21" fill="none" xmlns="http://www.w3.org/2000/svg">
<g clip-path="url(#clip0_626_2244)">
<path fill-rule="evenodd" clip-rule="evenodd" d="M1.99936 6.3826C2.25871 6.17131 2.64404 6.2057 2.86002 6.4594C4.28792 8.13667 6.87796 10.2296 10.946 10.2296C15.0139 10.2296 17.6039 8.13669 19.0318 6.45942C19.2478 6.20572 19.6331 6.17133 19.8925 6.38262C20.1518 6.59391 20.187 6.97086 19.971 7.22457C19.5306 7.74183 18.985 8.2997 18.3274 8.83462C18.3627 8.87333 18.3935 8.91722 18.4184 8.96589L20.048 12.1542C20.1989 12.4496 20.0765 12.8086 19.7747 12.9563C19.4728 13.104 19.1057 12.9842 18.9548 12.689L17.3506 9.55031C16.3336 10.2182 15.1112 10.7933 13.6669 11.1246L14.397 14.6956C14.4631 15.0194 14.2485 15.3343 13.9175 15.3991C13.5866 15.4638 13.2647 15.2539 13.1985 14.9301L12.4634 11.3346C11.9795 11.3936 11.4738 11.4252 10.946 11.4252C10.418 11.4252 9.91238 11.3936 9.42838 11.3346L8.69333 14.9301C8.62714 15.2539 8.30519 15.4638 7.97424 15.3991C7.64329 15.3343 7.42866 15.0194 7.49485 14.6956L8.22495 11.1245C7.03334 10.8512 5.9928 10.412 5.09403 9.89156L2.87932 12.7803C2.67682 13.0444 2.29378 13.098 2.02377 12.8999C1.75377 12.7017 1.69905 12.3271 1.90156 12.0629L4.07514 9.22781C3.18413 8.5792 2.47055 7.87024 1.92086 7.22455C1.70487 6.97084 1.74002 6.59389 1.99936 6.3826Z" fill="#D354FF"/>
</g>
<defs>
<clipPath id="clip0_626_2244">
<rect width="20" height="20" fill="white" transform="translate(0.945312 0.828125)"/>
</clipPath>
</defs>
</svg>
