<svg width="22" height="21" viewBox="0 0 22 21" fill="none" xmlns="http://www.w3.org/2000/svg">
<path fill-rule="evenodd" clip-rule="evenodd" d="M1.23611 10.4853C3.19789 7.20253 6.63108 3.82812 11.0313 3.82812C15.4223 3.82812 18.8629 7.19977 20.8264 10.4853L21.0312 10.8281L20.8264 11.1709C18.8629 14.4565 15.4223 17.8281 11.0313 17.8281C6.63111 17.8281 3.1979 14.4537 1.23611 11.1709L1.03125 10.8281L1.23611 10.4853ZM2.63675 10.8281C4.52953 13.8321 7.50909 16.4733 11.0313 16.4733C14.5454 16.4733 17.5315 13.8338 19.4257 10.8281C17.5314 7.8225 14.5454 5.18296 11.0313 5.18296C7.50905 5.18296 4.52951 7.82413 2.63675 10.8281Z" fill="#D354FF"/>
<path fill-rule="evenodd" clip-rule="evenodd" d="M11.0319 7.8939C9.34231 7.8939 7.98938 9.21718 7.98938 10.8294C7.98938 12.4416 9.34231 13.7649 11.0319 13.7649C12.7215 13.7649 14.0745 12.4416 14.0745 10.8294C14.0745 9.21718 12.7215 7.8939 11.0319 7.8939ZM6.60938 10.8294C6.60938 8.45088 8.59866 6.53906 11.0319 6.53906C13.4652 6.53906 15.4545 8.45088 15.4545 10.8294C15.4545 13.2079 13.4652 15.1197 11.0319 15.1197C8.59866 15.1197 6.60938 13.2079 6.60938 10.8294Z" fill="#D354FF"/>
</svg>
