<svg width="22" height="21" viewBox="0 0 22 21" fill="none" xmlns="http://www.w3.org/2000/svg">
<g clip-path="url(#clip0_1028_6461)">
<path d="M9.88051 15.5621C10.3177 16.8684 11.4837 17.7054 12.5966 18.5932C12.9808 18.8975 13.5373 19.2526 13.2856 19.7599C13.1133 20.077 12.5303 20.3053 12.1064 20.3814C10.013 20.7618 8.3171 19.9629 6.92593 18.5298C5.28303 16.8303 4.47483 14.7631 4.19659 12.493C3.83886 9.47459 4.28934 6.60839 6.18398 4.08461C7.44265 2.3725 9.1253 1.33255 11.4174 1.44669C11.5897 1.44669 11.7619 1.39596 11.9341 1.37059C11.9341 1.28182 11.9341 1.20572 11.9474 1.11695C11.6824 1.06622 11.4174 0.990124 11.1524 0.977441C4.83256 0.888665 -0.1094 6.07573 0.539811 12.0998C0.990285 16.2723 4.28934 19.8107 8.59533 20.7492C13.0206 21.713 17.5518 19.8994 19.9234 16.2216C22.242 12.6198 21.9373 7.97808 19.1417 4.71872C18.1215 3.52659 16.9158 2.56273 15.4187 1.97934C15.1537 1.87789 14.7827 2.01739 14.4515 2.05544C14.5442 2.35981 14.5575 2.70224 14.7297 2.9432C14.9947 3.32367 15.4054 3.60268 15.6837 3.98315C17.7505 6.6718 18.2673 9.70287 17.9095 12.9495C17.7373 14.4968 16.8496 15.4353 15.3657 15.9172C13.895 16.3864 12.3581 15.6382 11.8944 14.2305C11.8281 14.0022 11.8546 13.7358 11.8944 13.4949C11.9739 12.8988 12.1329 12.3027 12.1461 11.7067C12.1594 11.3008 12.2389 11.1106 12.6893 11.174C12.9013 11.1994 13.1266 11.1994 13.3518 11.174C14.902 11.1106 16.5581 9.66482 16.7568 8.21904C16.8496 7.48347 16.6111 7.17909 15.8824 7.11568C13.9083 6.95081 12.9676 7.47078 12.1196 9.18289C11.7221 9.98188 11.1524 10.0453 10.6755 9.27167C10.4105 8.84047 10.3575 8.28245 10.1852 7.80052C10.1057 7.57224 9.94675 7.21714 9.81426 7.20445C9.58902 7.20445 9.21804 7.35664 9.1253 7.54688C8.86032 8.13026 8.71457 8.76438 8.51584 9.37313C8.2641 9.62678 7.80038 9.79165 7.41615 10.058C6.46221 10.7048 6.28997 11.6559 6.35622 12.6959C6.38271 13.1778 6.40921 13.6217 6.09123 14.0783C5.94549 14.2939 6.06473 14.8773 6.28997 15.0802C6.63445 15.3845 7.15117 15.6382 7.60164 15.6762C8.33035 15.7396 9.0723 15.6128 9.88051 15.5494V15.5621Z" fill="white"/>
<path d="M9.88051 15.5622C9.0723 15.6129 8.33035 15.7524 7.60164 15.689C7.13792 15.651 6.6212 15.3973 6.28997 15.093C6.06473 14.9027 5.94549 14.3067 6.09123 14.0911C6.40921 13.6345 6.38271 13.1906 6.35622 12.7087C6.28997 11.6814 6.47546 10.7176 7.41615 10.0708C7.80038 9.80444 8.2641 9.65225 8.51584 9.38592C8.71457 8.77717 8.87356 8.14306 9.1253 7.55967C9.2048 7.36943 9.57577 7.20456 9.81426 7.21725C9.94675 7.21725 10.1057 7.58503 10.1852 7.81332C10.3707 8.30793 10.4105 8.85326 10.6755 9.28446C11.1524 10.0581 11.7354 9.99467 12.1196 9.19569C12.9676 7.47089 13.9083 6.95092 15.8824 7.12847C16.6111 7.19188 16.8628 7.49626 16.7568 8.23183C16.5714 9.67761 14.902 11.1234 13.3518 11.1868C13.1266 11.1868 12.9146 11.1995 12.6893 11.1868C12.2389 11.1234 12.1594 11.3136 12.1461 11.7195C12.1196 12.3155 11.9606 12.9116 11.8944 13.5077C11.8679 13.7486 11.8281 14.015 11.8944 14.2432C12.3581 15.651 13.895 16.3992 15.3657 15.93C16.8496 15.4481 17.7373 14.4969 17.9095 12.9623C18.2673 9.71566 17.7505 6.67191 15.6837 3.99594C15.4054 3.62815 14.9947 3.33646 14.7297 2.95599C14.5575 2.71503 14.5442 2.3726 14.4515 2.06823C14.7827 2.04286 15.1537 1.89068 15.4187 1.99214C16.9158 2.57552 18.1215 3.55206 19.1417 4.73151C21.9373 7.99087 22.242 12.6326 19.9234 16.2344C17.5518 19.9122 13.0206 21.7258 8.59533 20.7619C4.30259 19.8108 1.00353 16.2724 0.539811 12.0999C-0.1094 6.07584 4.83256 0.888775 11.1524 0.990233C11.4174 0.990233 11.6824 1.07901 11.9474 1.12974C11.9474 1.21851 11.9474 1.29461 11.9341 1.38338C11.7619 1.40875 11.5897 1.47216 11.4174 1.45948C9.1253 1.34534 7.4559 2.38529 6.18398 4.08472C4.30259 6.6085 3.83886 9.48738 4.19659 12.4931C4.46158 14.7505 5.28303 16.8304 6.92593 18.5299C8.3171 19.963 10.013 20.7619 12.1064 20.3815C12.5436 20.3054 13.1266 20.0771 13.2856 19.76C13.5373 19.2654 12.9808 18.9103 12.5966 18.5933C11.4837 17.7055 10.3177 16.8685 9.88051 15.5622Z" fill="#E41D25"/>
</g>
<defs>
<clipPath id="clip0_1028_6461">
<rect width="21" height="20" fill="white" transform="translate(0.486328 0.990234)"/>
</clipPath>
</defs>
</svg>
