<svg width="21" height="21" viewBox="0 0 21 21" fill="none" xmlns="http://www.w3.org/2000/svg">
<path fill-rule="evenodd" clip-rule="evenodd" d="M2.99926 1.52541C2.19987 2.24897 1.95346 3.13566 1.84682 4.2086C1.53945 7.30108 4.39853 8.58806 8.48758 8.59347L10.638 8.59596C8.48758 10.2384 6.59679 11.885 5.07759 14.2928L7.35839 15.669C7.94355 13.8839 11.1129 8.39543 12.2286 8.59596L12.7019 7.8753L12.393 6.62892C11.0942 3.63306 6.8795 -1.98674 2.99926 1.52541ZM4.32872 2.63253C3.57535 3.36711 3.84738 5.18088 4.64705 5.60859C4.72323 5.64934 4.82574 5.71097 4.95068 5.78609C5.57842 6.1635 6.77214 6.88118 8.03418 6.99916C8.25959 7.02021 8.47548 7.0409 8.68159 7.06066C10.9242 7.27561 12.0083 7.37952 11.6018 6.6201C10.7106 4.95419 8.26097 1.98018 6.08515 1.99678C5.36448 2.00228 4.84908 2.12515 4.32872 2.63253Z" fill="#45A53A"/>
<path fill-rule="evenodd" clip-rule="evenodd" d="M3.34224 1.21533C2.17279 1.98291 0.658005 5.23942 3.1388 7.32204C4.84446 8.75394 7.12039 8.71584 10.2909 8.66277C10.7938 8.65435 11.3191 8.64556 11.8682 8.64219C11.726 9.52039 11.6032 10.3615 11.4881 11.1503C11.4362 11.5055 11.3859 11.8501 11.3361 12.1828C11.1437 13.4671 10.9584 14.5717 10.7151 15.5094C10.3482 16.9238 9.89322 17.7917 9.2387 18.2929C8.8722 18.5736 8.62421 19.0362 8.7735 19.473L8.90865 19.8685C9.05794 20.3053 9.53885 20.5457 9.94346 20.3235C11.5111 19.4625 12.2659 17.8528 12.7377 16.0342C13.0113 14.9797 13.2099 13.7786 13.4026 12.4924C13.4546 12.1454 13.5062 11.7919 13.5588 11.4314L13.5589 11.4306C13.7037 10.4386 13.8562 9.3938 14.0458 8.28547C14.4471 5.93922 15.1248 5.0375 15.645 4.70219C16.0576 4.43624 16.579 4.39605 17.2618 4.5666C17.4858 4.62253 17.722 4.507 17.7951 4.28808L18.1924 3.09894C18.2655 2.88003 18.1478 2.64181 17.9252 2.58076C16.9023 2.30024 15.6569 2.20858 14.513 2.94583C13.4886 3.60608 12.7525 4.80121 12.279 6.57421C11.999 6.57443 11.7098 6.57682 11.4143 6.57926C7.35496 6.61276 2.10947 6.65606 3.34224 1.21533Z" fill="#413531"/>
<path fill-rule="evenodd" clip-rule="evenodd" d="M16.4658 8.19841C16.4658 8.42922 16.2787 8.61632 16.0479 8.61632H12.3867C12.1559 8.61632 11.9688 8.42922 11.9688 8.19841V7.02826C11.9688 6.79746 12.1559 6.61035 12.3867 6.61035H16.0479C16.2787 6.61035 16.4658 6.79746 16.4658 7.02826V8.19841Z" fill="#413531"/>
</svg>
