<svg width="46" height="46" viewBox="0 0 46 46" fill="none" xmlns="http://www.w3.org/2000/svg">
<path d="M22.8931 45.4987C35.2012 45.4987 45.1789 35.5211 45.1789 23.213C45.1789 10.905 35.2012 0.927307 22.8931 0.927307C10.5851 0.927307 0.607422 10.905 0.607422 23.213C0.607422 35.5211 10.5851 45.4987 22.8931 45.4987Z" fill="url(#paint0_linear_1790_10991)"/>
<path d="M22.8917 26.7899C27.6256 26.7899 31.4632 22.9523 31.4632 18.2185C31.4632 13.4846 27.6256 9.64703 22.8917 9.64703C18.1579 9.64703 14.3203 13.4846 14.3203 18.2185C14.3203 22.9523 18.1579 26.7899 22.8917 26.7899Z" fill="white"/>
<path d="M9.51172 36.2165C10.0788 37.0828 11.5396 38.0135 11.5396 38.0135C12.535 38.7427 13.6513 39.376 14.8643 39.8959C17.3161 40.9467 20.081 41.4986 22.8932 41.4986C25.7053 41.4986 28.4702 40.9467 30.922 39.8959C32.135 39.376 33.2513 38.7427 34.2468 38.0135C34.2468 38.0135 35.6523 37.0921 36.2739 36.2172C34.8659 34.4589 32.5793 32.7115 31.2884 31.9863C28.7245 30.5461 25.8332 29.7896 22.8925 29.7896C19.9518 29.7896 17.0606 30.5461 14.4967 31.9863C13.0126 32.82 10.7847 34.627 9.51172 36.2165Z" fill="white"/>
<defs>
<linearGradient id="paint0_linear_1790_10991" x1="11.3511" y1="3.42904" x2="41.6237" y2="53.095" gradientUnits="userSpaceOnUse">
<stop stop-color="#D354FF"/>
<stop offset="1" stop-color="#CA30FF"/>
<stop offset="1" stop-color="#CA30FF"/>
</linearGradient>
</defs>
</svg>
