<svg width="73" height="25" viewBox="0 0 73 25" fill="none" xmlns="http://www.w3.org/2000/svg">
<path d="M3.51715 18.9265C3.50683 18.8356 3.51715 18.8491 3.51715 18.9265C3.69024 20.452 4.98344 21.6371 6.55321 21.6371C8.24085 21.6371 9.60895 20.2672 9.60895 18.5774V7.99329H12.1806V18.5774C12.1806 21.6893 9.66115 24.212 6.55321 24.212C3.55838 24.212 1.10989 21.8696 0.935696 18.9147L0.925781 18.014C0.925781 17.5582 1.29481 17.1887 1.75004 17.1887C2.71512 17.1887 3.51715 17.9602 3.51715 18.9265Z" fill="url(#paint0_linear_1790_10966)"/>
<path fill-rule="evenodd" clip-rule="evenodd" d="M13.9808 6.28841L10.8953 3.19891L7.80973 6.28841C7.25791 6.84093 7.25791 7.73675 7.80973 8.28927C8.03046 8.51028 8.38833 8.51028 8.60905 8.28927L9.60895 7.2881V10.8926C9.60895 12.1718 9.21274 13.0729 8.68268 13.6422C8.15407 14.2099 7.41629 14.5322 6.55321 14.5322C5.69013 14.5322 4.95235 14.2099 4.42374 13.6422C3.89367 13.0729 3.49747 12.1718 3.49747 10.8926V8.65636C3.49747 7.61712 2.65607 6.77465 1.61816 6.77465C1.23577 6.77465 0.925781 7.08503 0.925781 7.46791V10.8926C0.925781 12.7176 1.50155 14.2799 2.54275 15.3981C3.58543 16.5179 5.01841 17.1072 6.55321 17.1072C8.088 17.1072 9.52098 16.5179 10.5637 15.3981C11.6049 14.2799 12.1806 12.7176 12.1806 10.8926V7.28711L13.1815 8.28927C13.4022 8.51028 13.7601 8.51028 13.9808 8.28927C14.5327 7.73675 14.5327 6.84094 13.9808 6.28841Z" fill="url(#paint1_linear_1790_10966)"/>
<path fill-rule="evenodd" clip-rule="evenodd" d="M70.0243 0.711692C69.6917 1.0448 69.5253 1.43987 69.5253 1.89692C69.5253 2.37721 69.6917 2.78391 70.0243 3.11702C70.357 3.45012 70.7593 3.61667 71.2313 3.61667C71.7032 3.61667 72.1016 3.45012 72.4266 3.11702C72.7593 2.78391 72.9256 2.38109 72.9256 1.90854C72.9256 1.436 72.7593 1.03705 72.4266 0.711692C72.0939 0.378588 71.6916 0.212036 71.2197 0.212036C70.7554 0.212036 70.357 0.378588 70.0243 0.711692ZM71.8782 6.60294C72.2387 6.60294 72.531 6.89558 72.531 7.25657V15.9599C72.531 17.0428 71.6542 17.9207 70.5726 17.9207C70.2121 17.9207 69.9198 17.6281 69.9198 17.2671V8.56381C69.9198 7.48085 70.7966 6.60294 71.8782 6.60294ZM16.6176 8.00898C15.4494 9.15548 14.8652 10.546 14.8652 12.1805C14.8652 13.9158 15.4378 15.3566 16.5828 16.5031C17.7278 17.6651 19.1475 18.2461 20.8419 18.2461C22.5517 18.2461 23.9946 17.6768 25.1706 16.538C26.3388 15.3915 26.9229 13.97 26.9229 12.2735C26.9229 10.5925 26.3427 9.17485 25.1822 8.02061C24.0062 6.86636 22.5749 6.28924 20.8883 6.28924C19.2094 6.28924 17.7858 6.86249 16.6176 8.00898ZM18.4396 14.9112C17.8361 14.2528 17.5344 13.358 17.5344 12.227C17.5344 11.1735 17.8439 10.3136 18.4628 9.64739C19.0818 8.98118 19.8902 8.64808 20.8883 8.64808C21.9018 8.64808 22.718 8.98118 23.337 9.64739C23.9482 10.3059 24.2538 11.1851 24.2538 12.2851C24.2538 13.3851 23.9482 14.2644 23.337 14.9228C22.7258 15.5813 21.9095 15.9105 20.8883 15.9105C19.8748 15.9105 19.0585 15.5774 18.4396 14.9112ZM32.3077 8.47046C32.3077 7.43908 31.4727 6.60297 30.4426 6.60297C30.0306 6.60297 29.6965 6.93741 29.6965 7.34997V13.1566C29.6965 14.1947 29.8049 14.9771 30.0215 15.5038C30.2459 16.0926 30.6288 16.6232 31.1704 17.0958C32.0524 17.8627 33.1703 18.2461 34.5243 18.2461C35.8859 18.2461 37.0078 17.8627 37.8897 17.0958C38.4236 16.6232 38.7988 16.0926 39.0154 15.5038C39.2398 14.8454 39.352 14.063 39.352 13.1566V7.34997C39.352 6.93742 39.018 6.60297 38.6059 6.60297C37.5759 6.60297 36.7408 7.43908 36.7408 8.47046V13.0985C36.7408 14.9732 36.002 15.9105 34.5243 15.9105C33.0466 15.9105 32.3077 14.9732 32.3077 13.0985V8.47046ZM42.6478 7.65341C42.6478 7.07327 43.1175 6.60297 43.6969 6.60297H44.2261C44.803 6.60297 45.2706 7.07119 45.2706 7.64877C46.1835 6.74241 47.2125 6.28924 48.3575 6.28924C49.6728 6.28924 50.6979 6.70368 51.4329 7.53257C52.0673 8.23751 52.3845 9.38788 52.3845 10.9837V17.1705C52.3845 17.5848 52.049 17.9208 51.6352 17.9208C50.6005 17.9208 49.7618 17.081 49.7618 16.045V11.5995C49.7618 10.484 49.607 9.71324 49.2976 9.28718C48.9958 8.85337 48.4465 8.63646 47.6496 8.63646C46.7831 8.63646 46.168 8.92308 45.8044 9.49633C45.4485 10.0618 45.2706 11.0495 45.2706 12.4594V17.1705C45.2706 17.5848 44.9351 17.9208 44.5212 17.9208C43.4866 17.9208 42.6478 17.081 42.6478 16.045V7.65341ZM66.5659 19.0595C66.6046 18.6567 66.624 18.188 66.624 17.6535V7.91022C66.624 7.18825 66.0394 6.60297 65.3184 6.60297H65.2894C64.5844 6.60297 64.0128 7.17524 64.0128 7.88117C63.0689 6.81988 61.8852 6.28924 60.4617 6.28924C58.8369 6.28924 57.5294 6.90122 56.5391 8.12518C55.6185 9.27943 55.1581 10.6816 55.1581 12.3316C55.1581 14.0281 55.6533 15.4419 56.6436 16.5729C57.6261 17.6884 58.8872 18.2461 60.4268 18.2461C61.7808 18.2461 62.9761 17.7155 64.0128 16.6542V18.2345C64.0128 20.5817 63.0573 21.7553 61.1464 21.7553C60.1096 21.7553 59.3205 21.4029 58.7789 20.6979C58.7688 20.6847 58.7583 20.6702 58.7476 20.6545C58.2787 19.9668 57.612 19.4081 56.7803 19.4081C56.1799 19.4081 55.7012 19.9339 55.8683 20.5114C56.1474 21.4761 56.6573 22.2664 57.3979 22.8825C58.3727 23.6959 59.6145 24.1026 61.1231 24.1026C62.9103 24.1026 64.3145 23.5138 65.3358 22.3363C65.8774 21.7244 66.241 20.9923 66.4267 20.1402C66.4886 19.8303 66.535 19.4701 66.5659 19.0595ZM63.2353 9.64739C63.8233 10.3059 64.1173 11.1851 64.1173 12.2851C64.1173 13.3154 63.8503 14.1598 63.3165 14.8183C62.7363 15.5464 61.9471 15.9105 60.9491 15.9105C59.951 15.9105 59.1696 15.5503 58.6048 14.8299C58.0865 14.1714 57.8273 13.327 57.8273 12.2967C57.8273 11.2509 58.0865 10.3988 58.6048 9.74035C59.1774 9.00443 59.9588 8.63646 60.9491 8.63646C61.8775 8.63646 62.6395 8.97344 63.2353 9.64739Z" fill="#D660FF"/>
<defs>
<linearGradient id="paint0_linear_1790_10966" x1="6.55303" y1="15.9337" x2="6.55301" y2="25.1725" gradientUnits="userSpaceOnUse">
<stop stop-color="#BD00FF"/>
<stop offset="1" stop-color="#CF46FF"/>
</linearGradient>
<linearGradient id="paint1_linear_1790_10966" x1="7.66024" y1="3.19891" x2="7.66024" y2="17.1072" gradientUnits="userSpaceOnUse">
<stop stop-color="#DF84FF"/>
<stop offset="1" stop-color="#D660FF"/>
</linearGradient>
</defs>
</svg>
