<svg width="18" height="19" viewBox="0 0 18 19" fill="none" xmlns="http://www.w3.org/2000/svg">
<path d="M6.46778 16.2219L0.929688 17.7726L2.48035 12.2345L12.6212 2.14287C12.7358 2.02565 12.8727 1.93251 13.0238 1.86892C13.1749 1.80534 13.3372 1.77258 13.5011 1.77258C13.6651 1.77258 13.8274 1.80534 13.9785 1.86892C14.1296 1.93251 14.2665 2.02565 14.3811 2.14287L16.5594 4.33349C16.6748 4.4479 16.7663 4.58401 16.8288 4.73398C16.8913 4.88395 16.9234 5.04481 16.9234 5.20728C16.9234 5.36974 16.8913 5.5306 16.8288 5.68057C16.7663 5.83054 16.6748 5.96665 16.5594 6.08106L6.46778 16.2219Z" stroke="url(#paint0_linear_1954_287)" stroke-width="1.6" stroke-linecap="round" stroke-linejoin="round"/>
<defs>
<linearGradient id="paint0_linear_1954_287" x1="14.1707" y1="-5.98281" x2="2.02705" y2="-4.1132" gradientUnits="userSpaceOnUse">
<stop stop-color="#D354FF"/>
<stop offset="1" stop-color="#CA30FF"/>
<stop offset="1" stop-color="#CA30FF"/>
</linearGradient>
</defs>
</svg>
