<svg width="29" height="29" viewBox="0 0 29 29" fill="none" xmlns="http://www.w3.org/2000/svg">
<path d="M20.1372 19.0694C20.0183 19.0695 19.9012 19.0408 19.7958 18.9857C19.6904 18.9306 19.6 18.8508 19.5322 18.7531C19.3104 18.4332 19.0145 18.1717 18.6697 17.991C18.3249 17.8102 17.9415 17.7155 17.5522 17.715H15.3935C15.0042 17.7155 14.6208 17.8102 14.276 17.991C13.9312 18.1717 13.6353 18.4332 13.4135 18.7531C13.3622 18.8408 13.2933 18.9168 13.2112 18.9765C13.1291 19.0362 13.0356 19.0783 12.9364 19.1C12.8373 19.1218 12.7347 19.1228 12.6351 19.103C12.5356 19.0832 12.4412 19.0431 12.3579 18.985C12.2746 18.9269 12.2043 18.8523 12.1513 18.7657C12.0982 18.6792 12.0637 18.5825 12.0499 18.482C12.036 18.3814 12.0431 18.2791 12.0707 18.1814C12.0983 18.0837 12.1459 17.9928 12.2103 17.9144C12.5673 17.3987 13.044 16.9773 13.5996 16.6863C14.1552 16.3953 14.7731 16.2435 15.4003 16.2438H17.566C18.1931 16.2435 18.811 16.3953 19.3667 16.6863C19.9223 16.9773 20.399 17.3987 20.756 17.9144C20.8322 18.0243 20.8771 18.1529 20.8857 18.2864C20.8943 18.42 20.8664 18.5533 20.8048 18.6721C20.7433 18.7909 20.6506 18.8907 20.5365 18.9607C20.4225 19.0307 20.2916 19.0683 20.1578 19.0694H20.1372Z" fill="#D354FF" stroke="url(#paint0_linear_2616_10529)" stroke-width="0.2"/>
<path d="M16.4746 15.4137C15.8627 15.4137 15.2646 15.2322 14.7558 14.8923C14.2471 14.5524 13.8505 14.0692 13.6164 13.5039C13.3822 12.9386 13.3209 12.3165 13.4403 11.7164C13.5597 11.1163 13.8543 10.565 14.287 10.1323C14.7197 9.69967 15.2709 9.40502 15.871 9.28564C16.4712 9.16627 17.0932 9.22754 17.6585 9.4617C18.2238 9.69585 18.707 10.0924 19.047 10.6012C19.3869 11.1099 19.5684 11.7081 19.5684 12.3199C19.5684 13.1405 19.2424 13.9274 18.6622 14.5076C18.082 15.0877 17.2951 15.4137 16.4746 15.4137ZM16.4746 10.6974C16.1537 10.6974 15.84 10.7926 15.5732 10.9709C15.3064 11.1492 15.0984 11.4026 14.9756 11.699C14.8528 11.9955 14.8207 12.3217 14.8833 12.6365C14.9459 12.9512 15.1004 13.2403 15.3273 13.4672C15.5542 13.6941 15.8433 13.8487 16.1581 13.9113C16.4728 13.9739 16.799 13.9417 17.0955 13.8189C17.392 13.6961 17.6454 13.4882 17.8237 13.2214C18.0019 12.9545 18.0971 12.6408 18.0971 12.3199C18.0917 11.8926 17.9186 11.4845 17.6151 11.1835C17.3116 10.8826 16.902 10.713 16.4746 10.7112V10.6974Z" fill="#D354FF" stroke="url(#paint1_linear_2616_10529)" stroke-width="0.2"/>
<path d="M8.41094 20.7492C8.21584 20.7492 8.02873 20.6717 7.89077 20.5337C7.75282 20.3958 7.67531 20.2086 7.67531 20.0135V8.28481C7.66541 8.18269 7.67697 8.07964 7.70926 7.98226C7.74155 7.88488 7.79385 7.79533 7.8628 7.71936C7.93175 7.64339 8.01583 7.58269 8.10964 7.54115C8.20345 7.49961 8.30491 7.47815 8.4075 7.47815C8.51009 7.47815 8.61155 7.49961 8.70536 7.54115C8.79917 7.58269 8.88325 7.64339 8.9522 7.71936C9.02115 7.79533 9.07345 7.88488 9.10574 7.98226C9.13803 8.07964 9.14959 8.18269 9.13969 8.28481V20.0135C9.1397 20.2075 9.06314 20.3935 8.92666 20.5313C8.79019 20.6691 8.60484 20.7474 8.41094 20.7492Z" fill="#D354FF" stroke="url(#paint2_linear_2616_10529)" stroke-width="0.2"/>
<path d="M20.1359 25.15H8.40711C7.73244 25.1509 7.06421 25.0187 6.44072 24.7609C5.81723 24.5032 5.25073 24.1249 4.77366 23.6479C4.29659 23.1708 3.91834 22.6043 3.66057 21.9808C3.4028 21.3573 3.27058 20.6891 3.27149 20.0144V8.28565C3.27149 6.9236 3.81256 5.61733 4.77568 4.65422C5.73879 3.6911 7.04506 3.15003 8.40711 3.15003H20.1359C20.8105 3.14912 21.4788 3.28134 22.1022 3.53911C22.7257 3.79688 23.2922 4.17513 23.7693 4.6522C24.2464 5.12927 24.6246 5.69577 24.8824 6.31926C25.1402 6.94275 25.2724 7.61098 25.2715 8.28565V20.0144C25.2715 21.3764 24.7304 22.6827 23.7673 23.6458C22.8042 24.6089 21.4979 25.15 20.1359 25.15ZM8.40711 4.6144C7.92474 4.6135 7.44694 4.70784 7.00111 4.89202C6.55529 5.07619 6.15021 5.34658 5.80913 5.68767C5.46804 6.02875 5.19765 6.43383 5.01348 6.87965C4.8293 7.32548 4.73496 7.80328 4.73586 8.28565V20.0144C4.73586 20.9862 5.12193 21.9183 5.80913 22.6055C6.49634 23.2927 7.42838 23.6788 8.40024 23.6788H20.1359C21.1077 23.6788 22.0398 23.2927 22.727 22.6055C23.4142 21.9183 23.8002 20.9862 23.8002 20.0144V8.28565C23.8002 7.3138 23.4142 6.38175 22.727 5.69455C22.0398 5.00735 21.1077 4.62128 20.1359 4.62128L8.40711 4.6144Z" fill="#D354FF" stroke="url(#paint3_linear_2616_10529)" stroke-width="0.2"/>
<defs>
<linearGradient id="paint0_linear_2616_10529" x1="24.5204" y1="16.2438" x2="24.0337" y2="20.4912" gradientUnits="userSpaceOnUse">
<stop stop-color="#D354FF"/>
<stop offset="1" stop-color="#CA30FF"/>
<stop offset="1" stop-color="#CA30FF"/>
</linearGradient>
<linearGradient id="paint1_linear_2616_10529" x1="22.1101" y1="9.2262" x2="19.2035" y2="17.4673" gradientUnits="userSpaceOnUse">
<stop stop-color="#D354FF"/>
<stop offset="1" stop-color="#CA30FF"/>
<stop offset="1" stop-color="#CA30FF"/>
</linearGradient>
<linearGradient id="paint2_linear_2616_10529" x1="9.7475" y1="7.47815" x2="4.06217" y2="9.26519" gradientUnits="userSpaceOnUse">
<stop stop-color="#D354FF"/>
<stop offset="1" stop-color="#CA30FF"/>
<stop offset="1" stop-color="#CA30FF"/>
</linearGradient>
<linearGradient id="paint3_linear_2616_10529" x1="34.3089" y1="3.15002" x2="23.9742" y2="32.4518" gradientUnits="userSpaceOnUse">
<stop stop-color="#D354FF"/>
<stop offset="1" stop-color="#CA30FF"/>
<stop offset="1" stop-color="#CA30FF"/>
</linearGradient>
</defs>
</svg>
