<svg width="57" height="55" viewBox="0 0 57 55" fill="none" xmlns="http://www.w3.org/2000/svg">
<path fill-rule="evenodd" clip-rule="evenodd" d="M26.9258 40.212C34.6578 40.212 40.9258 33.944 40.9258 26.212C40.9258 18.48 34.6578 12.212 26.9258 12.212C19.1938 12.212 12.9258 18.48 12.9258 26.212C12.9258 33.944 19.1938 40.212 26.9258 40.212ZM27.3643 20.4327C27.3643 19.7981 26.8499 19.2837 26.2154 19.2837C25.5808 19.2837 25.0664 19.7981 25.0664 20.4327V27.5032C25.0664 27.9384 25.3123 28.3363 25.7015 28.5309L30.2974 30.8288C30.865 31.1126 31.5551 30.8825 31.8389 30.315C32.1227 29.7474 31.8926 29.0573 31.3251 28.7735L27.3643 26.7931V20.4327Z" fill="url(#paint0_linear_1790_10980)"/>
<path d="M26.9258 2.21204C31.6725 2.21204 36.3127 3.61961 40.2595 6.25676C44.2063 8.89392 47.2824 12.6422 49.0989 17.0276C50.9154 21.4131 51.3907 26.2387 50.4646 30.8942C49.5386 35.5497 47.2528 39.8261 43.8964 43.1826C40.5399 46.5391 36.2635 48.8248 31.608 49.7509C26.9524 50.6769 22.1268 50.2016 17.7414 48.3851C13.356 46.5686 9.60768 43.4925 6.97053 39.5457C4.33337 35.5989 2.9258 30.9588 2.9258 26.212C2.91819 19.3369 5.5634 12.7238 10.3104 7.7505M2.92578 9.59823L10.3104 7.75208L12.1565 15.1367" stroke="url(#paint1_linear_1790_10980)" stroke-width="4" stroke-linecap="round" stroke-linejoin="round"/>
<g filter="url(#filter0_b_1790_10980)">
<path fill-rule="evenodd" clip-rule="evenodd" d="M46.3843 33.7198C40.6138 33.7198 35.8438 38.2571 35.8438 43.966C35.8438 49.6749 40.6138 54.2122 46.3843 54.2122C52.1548 54.2122 56.9249 49.6749 56.9249 43.966C56.9249 38.2571 52.1548 33.7198 46.3843 33.7198ZM46.3843 35.3198C41.4466 35.3198 37.4438 39.1909 37.4438 43.966C37.4438 48.7412 41.4466 52.6122 46.3843 52.6122C51.3221 52.6122 55.3249 48.7412 55.3249 43.966C55.3249 39.1909 51.3221 35.3198 46.3843 35.3198ZM46.3851 36.1864C41.9412 36.1864 38.3386 39.6703 38.3386 43.968C38.3386 48.2656 41.9412 51.7495 46.3851 51.7495C50.8291 51.7495 54.4316 48.2656 54.4316 43.968C54.4317 39.6703 50.8291 36.1864 46.3851 36.1864Z" fill="white" fill-opacity="0.2"/>
</g>
<defs>
<filter id="filter0_b_1790_10980" x="11.8438" y="9.71985" width="69.082" height="68.4924" filterUnits="userSpaceOnUse" color-interpolation-filters="sRGB">
<feFlood flood-opacity="0" result="BackgroundImageFix"/>
<feGaussianBlur in="BackgroundImageFix" stdDeviation="12"/>
<feComposite in2="SourceAlpha" operator="in" result="effect1_backgroundBlur_1790_10980"/>
<feBlend mode="normal" in="SourceGraphic" in2="effect1_backgroundBlur_1790_10980" result="shape"/>
</filter>
<linearGradient id="paint0_linear_1790_10980" x1="19.675" y1="13.7836" x2="38.6924" y2="44.984" gradientUnits="userSpaceOnUse">
<stop stop-color="#D354FF"/>
<stop offset="1" stop-color="#CA30FF"/>
<stop offset="1" stop-color="#CA30FF"/>
</linearGradient>
<linearGradient id="paint1_linear_1790_10980" x1="42.6642" y1="-21.0541" x2="6.21983" y2="-15.441" gradientUnits="userSpaceOnUse">
<stop stop-color="#D354FF"/>
<stop offset="1" stop-color="#CA30FF"/>
<stop offset="1" stop-color="#CA30FF"/>
</linearGradient>
</defs>
</svg>
