<svg width="17" height="17" viewBox="0 0 17 17" fill="none" xmlns="http://www.w3.org/2000/svg">
<path d="M13.6787 5.27913L13.9607 3.96307C14.0255 3.66066 14.3231 3.46789 14.6257 3.53281C14.9281 3.59768 15.1208 3.89533 15.0561 4.19772L15.0561 4.19775L14.4918 6.83055L14.4918 6.83056C14.4607 6.97577 14.3731 7.10269 14.2484 7.18338C14.2484 7.18338 14.2484 7.18339 14.2484 7.18339L13.6787 5.27913ZM13.6787 5.27913C12.5718 3.55807 10.6562 2.48875 8.56461 2.48875C5.21165 2.48875 2.48398 5.21637 2.48398 8.56937C2.48398 8.87865 2.73471 9.12942 3.04403 9.12942C3.35332 9.12942 3.60408 8.87866 3.60408 8.56937C3.60408 5.83421 5.82944 3.60884 8.56461 3.60884C10.2694 3.60884 11.831 4.47939 12.7345 5.88118L11.4287 5.60133C11.1262 5.5365 10.8285 5.7292 10.7638 6.03163C10.7638 6.03163 10.7638 6.03164 10.7638 6.03164L10.8615 6.05258C10.8083 6.301 10.9666 6.5456 11.215 6.59882L13.6787 5.27913ZM13.8268 7.26079C13.8268 7.2608 13.8268 7.2608 13.8268 7.2608L13.8268 7.26079Z" fill="url(#paint0_linear_786_6718)" stroke="url(#paint1_linear_786_6718)" stroke-width="0.2"/>
<path d="M4.56111 11.4345C5.47984 12.7603 6.99738 13.5689 8.63759 13.569C8.69257 13.569 8.74749 13.5681 8.80271 13.5663C10.1272 13.5225 11.3548 12.9658 12.2604 11.9984C13.1661 11.0308 13.6405 9.76916 13.5968 8.44468C13.5866 8.13559 13.8289 7.87676 14.1379 7.86648M4.56111 11.4345L8.83641 14.5858L8.83971 14.6857C10.4628 14.6321 11.9684 13.9494 13.0782 12.7638C14.1881 11.5782 14.7699 10.0308 14.7163 8.40772M4.56111 11.4345L5.90701 11.7954L5.90703 11.7954C6.20576 11.8755 6.51289 11.6983 6.593 11.3995L4.56111 11.4345ZM14.1379 7.86648C14.4473 7.85555 14.7061 8.09889 14.7163 8.40772M14.1379 7.86648C14.1379 7.86648 14.1378 7.86648 14.1378 7.86648L14.1413 7.96642L14.138 7.86647C14.138 7.86648 14.138 7.86648 14.1379 7.86648ZM14.7163 8.40772L14.6163 8.41101L14.7163 8.40771C14.7163 8.40771 14.7163 8.40772 14.7163 8.40772ZM2.21317 13.0129C2.13306 13.3116 2.31031 13.6187 2.60904 13.6989L2.60905 13.6989C2.65743 13.7118 2.70618 13.7181 2.75438 13.7181C3.00159 13.7181 3.22794 13.5532 3.29505 13.303L3.19846 13.2771L3.29505 13.303L3.62946 12.0557L2.30976 13.0388M2.21317 13.0129L2.30976 13.0388M2.21317 13.0129L2.21317 13.0129L2.30976 13.0388M2.21317 13.0129L2.91042 10.4121L2.91042 10.4121C2.9489 10.2687 3.04274 10.1463 3.17145 10.0721M2.30976 13.0388L3.00701 10.438C3.03862 10.3201 3.11572 10.2196 3.22143 10.1587M3.17145 10.0721L3.22143 10.1587M3.17145 10.0721C3.17146 10.0721 3.17147 10.0721 3.17147 10.072L3.22143 10.1587M3.17145 10.0721C3.30006 9.99785 3.45295 9.9778 3.59636 10.0162L3.59641 10.0162L6.19711 10.7135L6.19714 10.7135C6.49586 10.7937 6.67312 11.1007 6.593 11.3995L3.57051 10.1128C3.45266 10.0812 3.32705 10.0977 3.22143 10.1587" fill="url(#paint2_linear_786_6718)" stroke="url(#paint3_linear_786_6718)" stroke-width="0.2"/>
<defs>
<linearGradient id="paint0_linear_786_6718" x1="12.837" y1="-0.533126" x2="3.98705" y2="2.08784" gradientUnits="userSpaceOnUse">
<stop stop-color="#D354FF"/>
<stop offset="1" stop-color="#CA30FF"/>
<stop offset="1" stop-color="#CA30FF"/>
</linearGradient>
<linearGradient id="paint1_linear_786_6718" x1="12.837" y1="-0.533126" x2="3.98705" y2="2.08784" gradientUnits="userSpaceOnUse">
<stop stop-color="#D354FF"/>
<stop offset="1" stop-color="#CA30FF"/>
<stop offset="1" stop-color="#CA30FF"/>
</linearGradient>
<linearGradient id="paint2_linear_786_6718" x1="12.4982" y1="4.75592" x2="3.64519" y2="7.29353" gradientUnits="userSpaceOnUse">
<stop stop-color="#D354FF"/>
<stop offset="1" stop-color="#CA30FF"/>
<stop offset="1" stop-color="#CA30FF"/>
</linearGradient>
<linearGradient id="paint3_linear_786_6718" x1="12.4982" y1="4.75592" x2="3.64519" y2="7.29353" gradientUnits="userSpaceOnUse">
<stop stop-color="#D354FF"/>
<stop offset="1" stop-color="#CA30FF"/>
<stop offset="1" stop-color="#CA30FF"/>
</linearGradient>
</defs>
</svg>
