<svg width="19" height="19" viewBox="0 0 19 19" fill="none" xmlns="http://www.w3.org/2000/svg">
<g clip-path="url(#clip0_1028_6362)">
<path d="M17.8593 8.13617L16.6677 6.90232C16.5757 6.80739 16.5318 6.67277 16.5504 6.54196L16.7896 4.84395C16.8879 4.1477 16.4221 3.50756 15.7301 3.38645L14.041 3.09023C13.9106 3.06742 13.7958 2.9839 13.7342 2.86657L12.9316 1.35255C12.602 0.730576 11.8484 0.485828 11.2163 0.795535L9.67652 1.54917C9.55752 1.6074 9.41573 1.6074 9.29673 1.54917L7.75697 0.795535C7.12445 0.485793 6.37164 0.730541 6.04165 1.35255L5.23907 2.86657C5.1766 2.98557 5.06437 3.06661 4.9323 3.09023L3.24357 3.38645C2.55111 3.50712 2.08568 4.1477 2.18399 4.8435L2.42283 6.54193C2.4414 6.67444 2.39921 6.80606 2.30554 6.90229L1.11389 8.13613C0.6261 8.64082 0.6261 9.43241 1.11389 9.9371L2.30554 11.1709C2.39754 11.2659 2.4414 11.4005 2.42283 11.5313L2.18358 13.2293C2.08527 13.9256 2.55111 14.5657 3.24313 14.6868L4.93227 14.983C5.06266 15.0058 5.17742 15.0894 5.23904 15.2067L6.04162 16.7207C6.3716 17.3427 7.12483 17.5874 7.75694 17.2777L9.2967 16.5241C9.41569 16.4659 9.55749 16.4659 9.67649 16.5241L11.2162 17.2777C11.4015 17.3685 11.5969 17.4115 11.7893 17.4115C12.2534 17.4115 12.6986 17.1604 12.9315 16.7207L13.7341 15.2067C13.7966 15.0877 13.9088 15.0067 14.0409 14.9831L15.7296 14.6868C16.4221 14.5662 16.8875 13.9256 16.7892 13.2298L16.5503 11.5314C16.5317 11.3989 16.5739 11.2672 16.6676 11.171L17.8593 9.93716C18.3472 9.43244 18.3472 8.64085 17.8593 8.13617ZM17.2378 9.33707L16.0461 10.5701C15.7663 10.8595 15.6385 11.2536 15.6946 11.652L15.9335 13.35C15.9664 13.5821 15.8111 13.7956 15.5807 13.8361L13.8911 14.1324C13.4945 14.202 13.159 14.4463 12.9704 14.802L12.1678 16.3156C12.0581 16.5232 11.8075 16.6051 11.5961 16.5017L10.0563 15.7477C9.87822 15.6608 9.68242 15.6169 9.48666 15.6169C9.2909 15.6169 9.09506 15.6608 8.91702 15.7481L7.37725 16.5013C7.16667 16.6051 6.9152 16.5232 6.80549 16.3156L6.00291 14.8016C5.81428 14.4455 5.47839 14.2016 5.08133 14.1324L3.39261 13.8357C3.16223 13.7952 3.00691 13.5821 3.03941 13.35L3.27866 11.652C3.33478 11.2536 3.20691 10.8596 2.92758 10.5705L1.73552 9.33707C1.57307 9.16827 1.57307 8.90499 1.73552 8.73619L2.92717 7.5032C3.20695 7.21374 3.33478 6.81961 3.27866 6.42126L3.03982 4.72325C3.00691 4.49116 3.16219 4.27765 3.39257 4.23713L5.08215 3.94091C5.4788 3.87127 5.81428 3.62697 6.00288 3.27125L6.80546 1.75763C6.91517 1.55002 7.16667 1.46902 7.37722 1.57153L8.91698 2.3256C9.27311 2.49945 9.70014 2.49986 10.0563 2.32519L11.5961 1.572C11.8071 1.4682 12.0581 1.55005 12.1678 1.75766L12.9704 3.27169C13.159 3.62782 13.4949 3.87175 13.892 3.94094L15.5807 4.23757C15.8111 4.27809 15.9664 4.49116 15.9339 4.72328L15.6947 6.42129C15.6385 6.81965 15.7664 7.21374 16.0457 7.50279L17.2378 8.73619C17.4002 8.90499 17.4002 9.16831 17.2378 9.33707Z" fill="black" stroke="black" stroke-width="0.4"/>
<path d="M12.3837 6.13905C12.2149 5.97025 11.9415 5.97025 11.7727 6.13905L6.58754 11.3242C6.41874 11.493 6.41874 11.7664 6.58754 11.9352C6.67192 12.0196 6.78248 12.0618 6.89304 12.0618C7.00361 12.0618 7.11417 12.0197 7.19855 11.9352L12.3837 6.75007C12.5525 6.58127 12.5525 6.30785 12.3837 6.13905Z" fill="black" stroke="black" stroke-width="0.4"/>
<path d="M9.05615 6.87793C9.05615 5.92426 8.28057 5.14868 7.3269 5.14868C6.37324 5.14868 5.59766 5.92426 5.59766 6.87793C5.59766 7.83159 6.37324 8.60717 7.3269 8.60717C8.28057 8.60717 9.05615 7.83159 9.05615 6.87793ZM6.46189 6.87793C6.46189 6.4011 6.8501 6.01288 7.32694 6.01288C7.80377 6.01288 8.19199 6.4011 8.19199 6.87793C8.19199 7.35476 7.80377 7.74298 7.32694 7.74298C6.85007 7.74298 6.46189 7.35476 6.46189 6.87793Z" fill="black" stroke="black" stroke-width="0.4"/>
<path d="M11.6453 9.46802C10.6916 9.46802 9.91602 10.2436 9.91602 11.1973C9.91602 12.1509 10.6916 12.9265 11.6453 12.9265C12.5989 12.9265 13.3745 12.1509 13.3745 11.1973C13.3745 10.2436 12.5989 9.46802 11.6453 9.46802ZM11.6453 12.0623C11.1684 12.0623 10.7802 11.6741 10.7802 11.1972C10.7802 10.7204 11.1684 10.3322 11.6453 10.3322C12.1221 10.3322 12.5103 10.7204 12.5103 11.1972C12.5103 11.6741 12.1221 12.0623 11.6453 12.0623Z" fill="black" stroke="black" stroke-width="0.4"/>
</g>
<defs>
<clipPath id="clip0_1028_6362">
<rect width="18" height="18" fill="white" transform="translate(0.486328 0.0366211)"/>
</clipPath>
</defs>
</svg>
