<svg width="21" height="21" viewBox="0 0 21 21" fill="none" xmlns="http://www.w3.org/2000/svg">
<g clip-path="url(#clip0_1028_6517)">
<path d="M19.8114 9.61609L18.4873 8.24515C18.3851 8.13967 18.3364 7.99008 18.357 7.84474L18.6228 5.95806C18.7321 5.18445 18.2145 4.47319 17.4455 4.33862L15.5687 4.00949C15.4238 3.98415 15.2963 3.89134 15.2279 3.76098L14.3361 2.07873C13.9699 1.38765 13.1325 1.11571 12.4302 1.45983L10.7194 2.2972C10.5871 2.3619 10.4296 2.3619 10.2974 2.2972L8.58652 1.45983C7.88372 1.11567 7.04726 1.38761 6.68061 2.07873L5.78885 3.76098C5.71945 3.8932 5.59474 3.98324 5.448 4.00949L3.57163 4.33862C2.80223 4.4727 2.28509 5.18445 2.39432 5.95757L2.6597 7.84471C2.68033 7.99194 2.63345 8.13819 2.52938 8.24511L1.20532 9.61605C0.663331 10.1768 0.663331 11.0564 1.20532 11.6171L2.52938 12.9881C2.63159 13.0935 2.68033 13.2431 2.6597 13.3885L2.39386 15.2751C2.28463 16.0488 2.80223 16.76 3.57114 16.8946L5.44796 17.2237C5.59284 17.2491 5.72036 17.3419 5.78882 17.4722L6.68057 19.1545C7.04722 19.8456 7.88414 20.1175 8.58648 19.7734L10.2973 18.936C10.4295 18.8713 10.5871 18.8713 10.7193 18.936L12.4302 19.7734C12.636 19.8742 12.8531 19.922 13.0669 19.922C13.5826 19.922 14.0773 19.6431 14.336 19.1545L15.2278 17.4723C15.2972 17.34 15.4219 17.25 15.5686 17.2238L17.445 16.8946C18.2144 16.7605 18.7316 16.0488 18.6223 15.2757L18.3569 13.3885C18.3363 13.2413 18.3832 13.0951 18.4872 12.9881L19.8113 11.6172C20.3534 11.0564 20.3534 10.1768 19.8114 9.61609ZM19.1207 10.9504L17.7967 12.3204C17.4858 12.642 17.3438 13.08 17.4061 13.5226L17.6715 15.4093C17.7081 15.6671 17.5355 15.9044 17.2796 15.9494L15.4023 16.2785C14.9615 16.3559 14.5888 16.6273 14.3792 17.0226L13.4875 18.7044C13.3656 18.9351 13.0871 19.026 12.8522 18.9112L11.1413 18.0733C10.9435 17.9767 10.7259 17.928 10.5084 17.928C10.2909 17.928 10.0733 17.9767 9.87546 18.0738L8.16461 18.9107C7.93064 19.026 7.65122 18.9351 7.52932 18.7044L6.63756 17.0221C6.42798 16.6264 6.05477 16.3554 5.61359 16.2785L3.73723 15.9489C3.48125 15.9039 3.30868 15.6672 3.34479 15.4093L3.61062 13.5226C3.67298 13.08 3.5309 12.6421 3.22054 12.3209L1.89602 10.9504C1.71552 10.7629 1.71552 10.4703 1.89602 10.2828L3.22008 8.91279C3.53094 8.59116 3.67298 8.15325 3.61062 7.71063L3.34524 5.82395C3.30868 5.56608 3.48121 5.32884 3.73719 5.28382L5.6145 4.95468C6.05522 4.87731 6.42798 4.60586 6.63753 4.21062L7.52928 2.52882C7.65118 2.29815 7.93064 2.20814 8.16457 2.32204L9.87542 3.1599C10.2711 3.35307 10.7456 3.35352 11.1413 3.15945L12.8522 2.32257C13.0866 2.20723 13.3656 2.29818 13.4875 2.52886L14.3792 4.21111C14.5888 4.60681 14.962 4.87784 15.4032 4.95472L17.2796 5.28431C17.5355 5.32934 17.7081 5.56608 17.672 5.82399L17.4062 7.71067C17.3438 8.15329 17.4859 8.59116 17.7963 8.91234L19.1208 10.2828C19.3013 10.4703 19.3013 10.7629 19.1207 10.9504Z" fill="#A2A2CB" stroke="#A2A2CB" stroke-width="0.4"/>
<path d="M13.7274 7.39799C13.5398 7.21044 13.236 7.21044 13.0485 7.39799L7.28715 13.1593C7.0996 13.3469 7.0996 13.6507 7.28715 13.8382C7.38091 13.932 7.50375 13.9789 7.6266 13.9789C7.74945 13.9789 7.8723 13.932 7.96606 13.8382L13.7274 8.0769C13.9149 7.88934 13.9149 7.58554 13.7274 7.39799Z" fill="#A2A2CB" stroke="#A2A2CB" stroke-width="0.4"/>
<path d="M10.0303 8.21728C10.0303 7.15766 9.16851 6.2959 8.10888 6.2959C7.04926 6.2959 6.1875 7.15766 6.1875 8.21728C6.1875 9.27691 7.04926 10.1387 8.10888 10.1387C9.16851 10.1387 10.0303 9.27691 10.0303 8.21728ZM7.14776 8.21728C7.14776 7.68747 7.57911 7.25612 8.10892 7.25612C8.63874 7.25612 9.07009 7.68747 9.07009 8.21728C9.07009 8.7471 8.63874 9.17845 8.10892 9.17845C7.57907 9.17845 7.14776 8.7471 7.14776 8.21728Z" fill="#A2A2CB" stroke="#A2A2CB" stroke-width="0.4"/>
<path d="M12.9067 11.0962C11.8471 11.0962 10.9854 11.9579 10.9854 13.0176C10.9854 14.0772 11.8471 14.939 12.9067 14.939C13.9664 14.939 14.8281 14.0772 14.8281 13.0176C14.8281 11.9579 13.9664 11.0962 12.9067 11.0962ZM12.9067 13.9787C12.3769 13.9787 11.9456 13.5474 11.9456 13.0175C11.9456 12.4877 12.3769 12.0564 12.9067 12.0564C13.4365 12.0564 13.8679 12.4877 13.8679 13.0175C13.8679 13.5474 13.4365 13.9787 12.9067 13.9787Z" fill="#A2A2CB" stroke="#A2A2CB" stroke-width="0.4"/>
</g>
<defs>
<clipPath id="clip0_1028_6517">
<rect width="20" height="20" fill="white" transform="translate(0.507812 0.616699)"/>
</clipPath>
</defs>
</svg>
