<svg width="33" height="33" viewBox="0 0 33 33" fill="none" xmlns="http://www.w3.org/2000/svg">
<path d="M10.0021 24.0181C9.98635 23.8796 10.0021 23.9002 10.0021 24.0181C10.266 26.3406 12.2374 28.145 14.6305 28.145C17.2032 28.145 19.2888 26.0593 19.2888 23.4866V7.37201H23.2093V23.4866C23.2093 28.2245 19.3684 32.0654 14.6305 32.0654C10.0649 32.0654 6.3323 28.4989 6.06675 24.0002L6.05164 22.6287C6.05164 21.9348 6.61421 21.3722 7.30819 21.3722C8.77942 21.3722 10.0021 22.5468 10.0021 24.0181Z" fill="url(#paint0_linear_640_2302)"/>
<path fill-rule="evenodd" clip-rule="evenodd" d="M25.9531 4.76926L21.2493 0.0654297L16.5455 4.76926C15.7043 5.61049 15.7043 6.97438 16.5455 7.81561C16.882 8.1521 17.4275 8.1521 17.764 7.81561L19.2887 6.29092V11.7783C19.2887 13.726 18.6847 15.098 17.8766 15.9647C17.0708 16.829 15.9461 17.3197 14.6303 17.3197C13.3146 17.3197 12.1899 16.829 11.384 15.9647C10.576 15.098 9.97196 13.726 9.97196 11.7783V8.37361C9.97196 6.79134 8.68928 5.50866 7.10702 5.50866C6.52408 5.50866 6.05151 5.98123 6.05151 6.56417V11.7783C6.05151 14.5569 6.92925 16.9356 8.51653 18.6381C10.1061 20.343 12.2906 21.2402 14.6303 21.2402C16.9701 21.2402 19.1546 20.343 20.7441 18.6381C22.3314 16.9356 23.2092 14.5569 23.2092 11.7783V6.29017L24.7346 7.81561C25.0711 8.1521 25.6166 8.1521 25.9531 7.81561C26.7944 6.97439 26.7944 5.61049 25.9531 4.76926Z" fill="url(#paint1_linear_640_2302)"/>
<defs>
<linearGradient id="paint0_linear_640_2302" x1="14.6302" y1="19.4615" x2="14.6302" y2="33.5278" gradientUnits="userSpaceOnUse">
<stop stop-color="#BD00FF"/>
<stop offset="1" stop-color="#CF46FF"/>
</linearGradient>
<linearGradient id="paint1_linear_640_2302" x1="16.3178" y1="0.0654297" x2="16.3178" y2="21.2402" gradientUnits="userSpaceOnUse">
<stop stop-color="#DF84FF"/>
<stop offset="1" stop-color="#D660FF"/>
</linearGradient>
</defs>
</svg>
