<svg width="9" height="8" viewBox="0 0 9 8" fill="none" xmlns="http://www.w3.org/2000/svg">
<path d="M3.27344 7.88009L1.93944 6.89109C1.83211 6.81442 1.77078 6.70709 1.75544 6.56909C1.74011 6.41576 1.76311 6.29309 1.82444 6.20109C1.82444 6.18576 1.87045 6.13209 1.96245 6.04009L3.52645 4.66009L1.43345 4.45309C1.37211 4.43776 1.32611 4.43009 1.29545 4.43009C1.28011 4.41476 1.26478 4.40709 1.24945 4.40709C1.14211 4.37642 1.05011 4.29976 0.973447 4.17709C0.912113 4.03909 0.896775 3.90109 0.927441 3.76309L1.45645 2.17609C1.48711 2.05342 1.57145 1.96142 1.70945 1.90009C1.84745 1.83876 1.97011 1.82342 2.07744 1.85409C2.10811 1.85409 2.16945 1.88476 2.26145 1.94609L4.07844 3.00409L3.61844 0.957089C3.60311 0.895755 3.59545 0.857422 3.59545 0.842089C3.59545 0.811423 3.59545 0.788423 3.59545 0.77309C3.59545 0.650423 3.64145 0.535423 3.73345 0.428089C3.84078 0.320756 3.96344 0.26709 4.10144 0.26709H5.78045C5.91845 0.26709 6.03345 0.320756 6.12545 0.428089C6.23278 0.535423 6.28644 0.650423 6.28644 0.77309C6.28644 0.788423 6.28644 0.811423 6.28644 0.842089C6.28644 0.857422 6.27878 0.895755 6.26345 0.957089L5.78045 3.02709L7.62044 1.94609C7.72778 1.88476 7.78911 1.85409 7.80445 1.85409C7.92711 1.82342 8.04978 1.83876 8.17244 1.90009C8.31044 1.96142 8.39478 2.05342 8.42544 2.17609L8.95444 3.76309C8.98511 3.90109 8.96978 4.03909 8.90844 4.17709C8.84711 4.29976 8.75511 4.37642 8.63244 4.40709C8.61711 4.40709 8.59411 4.41476 8.56344 4.43009C8.54811 4.43009 8.50978 4.43776 8.44844 4.45309L6.33245 4.66009L7.91945 6.04009C8.01145 6.13209 8.05745 6.18576 8.05745 6.20109C8.13411 6.29309 8.16478 6.41576 8.14945 6.56909C8.13412 6.70709 8.06511 6.81442 7.94245 6.89109L6.60845 7.88009C6.48578 7.94142 6.35544 7.96442 6.21744 7.94909C6.07944 7.93376 5.97211 7.87242 5.89544 7.76509C5.89544 7.74976 5.88778 7.73442 5.87245 7.71909C5.85712 7.68842 5.83412 7.65009 5.80345 7.60409L4.95244 5.64909L4.10144 7.60409C4.08611 7.65009 4.06311 7.68842 4.03244 7.71909C4.01711 7.73442 4.00178 7.74976 3.98645 7.76509C3.92511 7.87242 3.81778 7.93376 3.66445 7.94909C3.52645 7.96442 3.39611 7.94142 3.27344 7.88009Z" fill="white" fill-opacity="0.9"/>
</svg>
