<svg width="51" height="8" viewBox="0 0 51 8" fill="none" xmlns="http://www.w3.org/2000/svg">
<path d="M3.09961 7.88009L1.76561 6.89109C1.65828 6.81442 1.59695 6.70709 1.58162 6.56909C1.56628 6.41576 1.58928 6.29309 1.65062 6.20109C1.65062 6.18576 1.69662 6.13209 1.78862 6.04009L3.35262 4.66009L1.25962 4.45309C1.19828 4.43776 1.15228 4.43009 1.12162 4.43009C1.10628 4.41476 1.09095 4.40709 1.07562 4.40709C0.968286 4.37642 0.876285 4.29976 0.799618 4.17709C0.738285 4.03909 0.722947 3.90109 0.753613 3.76309L1.28262 2.17609C1.31329 2.05342 1.39762 1.96142 1.53562 1.90009C1.67362 1.83876 1.79628 1.82342 1.90361 1.85409C1.93428 1.85409 1.99562 1.88476 2.08762 1.94609L3.90461 3.00409L3.44462 0.957089C3.42928 0.895755 3.42162 0.857422 3.42162 0.842089C3.42162 0.811423 3.42162 0.788423 3.42162 0.77309C3.42162 0.650423 3.46762 0.535423 3.55962 0.428089C3.66695 0.320756 3.78962 0.26709 3.92762 0.26709H5.60662C5.74462 0.26709 5.85962 0.320756 5.95162 0.428089C6.05895 0.535423 6.11261 0.650423 6.11261 0.77309C6.11261 0.788423 6.11261 0.811423 6.11261 0.842089C6.11261 0.857422 6.10495 0.895755 6.08962 0.957089L5.60662 3.02709L7.44661 1.94609C7.55395 1.88476 7.61529 1.85409 7.63062 1.85409C7.75329 1.82342 7.87595 1.83876 7.99862 1.90009C8.13662 1.96142 8.22095 2.05342 8.25161 2.17609L8.78061 3.76309C8.81128 3.90109 8.79595 4.03909 8.73462 4.17709C8.67328 4.29976 8.58128 4.37642 8.45861 4.40709C8.44328 4.40709 8.42028 4.41476 8.38961 4.43009C8.37428 4.43009 8.33595 4.43776 8.27462 4.45309L6.15862 4.66009L7.74562 6.04009C7.83762 6.13209 7.88362 6.18576 7.88362 6.20109C7.96028 6.29309 7.99095 6.41576 7.97562 6.56909C7.96029 6.70709 7.89129 6.81442 7.76862 6.89109L6.43462 7.88009C6.31195 7.94142 6.18161 7.96442 6.04361 7.94909C5.90561 7.93376 5.79828 7.87242 5.72162 7.76509C5.72162 7.74976 5.71395 7.73442 5.69862 7.71909C5.68329 7.68842 5.66029 7.65009 5.62962 7.60409L4.77861 5.64909L3.92762 7.60409C3.91228 7.65009 3.88928 7.68842 3.85862 7.71909C3.84328 7.73442 3.82795 7.74976 3.81262 7.76509C3.75129 7.87242 3.64395 7.93376 3.49062 7.94909C3.35262 7.96442 3.22228 7.94142 3.09961 7.88009Z" fill="white" fill-opacity="0.9"/>
<path d="M17.1582 7.88009L15.8242 6.89109C15.7169 6.81442 15.6555 6.70709 15.6402 6.56909C15.6249 6.41576 15.6479 6.29309 15.7092 6.20109C15.7092 6.18576 15.7552 6.13209 15.8472 6.04009L17.4112 4.66009L15.3182 4.45309C15.2569 4.43776 15.2109 4.43009 15.1802 4.43009C15.1649 4.41476 15.1495 4.40709 15.1342 4.40709C15.0269 4.37642 14.9349 4.29976 14.8582 4.17709C14.7969 4.03909 14.7815 3.90109 14.8122 3.76309L15.3412 2.17609C15.3719 2.05342 15.4562 1.96142 15.5942 1.90009C15.7322 1.83876 15.8549 1.82342 15.9622 1.85409C15.9929 1.85409 16.0542 1.88476 16.1462 1.94609L17.9632 3.00409L17.5032 0.957089C17.4879 0.895755 17.4802 0.857422 17.4802 0.842089C17.4802 0.811423 17.4802 0.788423 17.4802 0.77309C17.4802 0.650423 17.5262 0.535423 17.6182 0.428089C17.7255 0.320756 17.8482 0.26709 17.9862 0.26709H19.6652C19.8032 0.26709 19.9182 0.320756 20.0102 0.428089C20.1175 0.535423 20.1712 0.650423 20.1712 0.77309C20.1712 0.788423 20.1712 0.811423 20.1712 0.842089C20.1712 0.857422 20.1635 0.895755 20.1482 0.957089L19.6652 3.02709L21.5052 1.94609C21.6125 1.88476 21.6739 1.85409 21.6892 1.85409C21.8119 1.82342 21.9345 1.83876 22.0572 1.90009C22.1952 1.96142 22.2795 2.05342 22.3102 2.17609L22.8392 3.76309C22.8699 3.90109 22.8545 4.03909 22.7932 4.17709C22.7319 4.29976 22.6399 4.37642 22.5172 4.40709C22.5019 4.40709 22.4789 4.41476 22.4482 4.43009C22.4329 4.43009 22.3945 4.43776 22.3332 4.45309L20.2172 4.66009L21.8042 6.04009C21.8962 6.13209 21.9422 6.18576 21.9422 6.20109C22.0189 6.29309 22.0495 6.41576 22.0342 6.56909C22.0189 6.70709 21.9499 6.81442 21.8272 6.89109L20.4932 7.88009C20.3705 7.94142 20.2402 7.96442 20.1022 7.94909C19.9642 7.93376 19.8569 7.87242 19.7802 7.76509C19.7802 7.74976 19.7725 7.73442 19.7572 7.71909C19.7419 7.68842 19.7189 7.65009 19.6882 7.60409L18.8372 5.64909L17.9862 7.60409C17.9709 7.65009 17.9479 7.68842 17.9172 7.71909C17.9019 7.73442 17.8865 7.74976 17.8712 7.76509C17.8099 7.87242 17.7025 7.93376 17.5492 7.94909C17.4112 7.96442 17.2809 7.94142 17.1582 7.88009Z" fill="white" fill-opacity="0.9"/>
<path d="M31.2148 7.88009L29.8808 6.89109C29.7735 6.81442 29.7122 6.70709 29.6969 6.56909C29.6815 6.41576 29.7045 6.29309 29.7659 6.20109C29.7659 6.18576 29.8119 6.13209 29.9039 6.04009L31.4679 4.66009L29.3749 4.45309C29.3135 4.43776 29.2675 4.43009 29.2369 4.43009C29.2215 4.41476 29.2062 4.40709 29.1909 4.40709C29.0835 4.37642 28.9915 4.29976 28.9149 4.17709C28.8535 4.03909 28.8382 3.90109 28.8688 3.76309L29.3979 2.17609C29.4285 2.05342 29.5129 1.96142 29.6509 1.90009C29.7889 1.83876 29.9115 1.82342 30.0188 1.85409C30.0495 1.85409 30.1109 1.88476 30.2029 1.94609L32.0198 3.00409L31.5598 0.957089C31.5445 0.895755 31.5369 0.857422 31.5369 0.842089C31.5369 0.811423 31.5369 0.788423 31.5369 0.77309C31.5369 0.650423 31.5829 0.535423 31.6749 0.428089C31.7822 0.320756 31.9049 0.26709 32.0429 0.26709H33.7219C33.8599 0.26709 33.9749 0.320756 34.0669 0.428089C34.1742 0.535423 34.2278 0.650423 34.2278 0.77309C34.2278 0.788423 34.2278 0.811423 34.2278 0.842089C34.2278 0.857422 34.2202 0.895755 34.2049 0.957089L33.7219 3.02709L35.5618 1.94609C35.6692 1.88476 35.7305 1.85409 35.7459 1.85409C35.8685 1.82342 35.9912 1.83876 36.1139 1.90009C36.2519 1.96142 36.3362 2.05342 36.3668 2.17609L36.8958 3.76309C36.9265 3.90109 36.9112 4.03909 36.8499 4.17709C36.7885 4.29976 36.6965 4.37642 36.5738 4.40709C36.5585 4.40709 36.5355 4.41476 36.5048 4.43009C36.4895 4.43009 36.4512 4.43776 36.3899 4.45309L34.2739 4.66009L35.8609 6.04009C35.9529 6.13209 35.9989 6.18576 35.9989 6.20109C36.0755 6.29309 36.1062 6.41576 36.0909 6.56909C36.0755 6.70709 36.0065 6.81442 35.8839 6.89109L34.5499 7.88009C34.4272 7.94142 34.2968 7.96442 34.1588 7.94909C34.0208 7.93376 33.9135 7.87242 33.8368 7.76509C33.8368 7.74976 33.8292 7.73442 33.8139 7.71909C33.7985 7.68842 33.7755 7.65009 33.7449 7.60409L32.8938 5.64909L32.0429 7.60409C32.0275 7.65009 32.0045 7.68842 31.9739 7.71909C31.9585 7.73442 31.9432 7.74976 31.9279 7.76509C31.8665 7.87242 31.7592 7.93376 31.6059 7.94909C31.4679 7.96442 31.3375 7.94142 31.2148 7.88009Z" fill="white" fill-opacity="0.9"/>
<path d="M45.2734 7.88009L43.9394 6.89109C43.8321 6.81442 43.7708 6.70709 43.7554 6.56909C43.7401 6.41576 43.7631 6.29309 43.8244 6.20109C43.8244 6.18576 43.8704 6.13209 43.9624 6.04009L45.5264 4.66009L43.4334 4.45309C43.3721 4.43776 43.3261 4.43009 43.2954 4.43009C43.2801 4.41476 43.2648 4.40709 43.2494 4.40709C43.1421 4.37642 43.0501 4.29976 42.9734 4.17709C42.9121 4.03909 42.8968 3.90109 42.9274 3.76309L43.4564 2.17609C43.4871 2.05342 43.5714 1.96142 43.7094 1.90009C43.8474 1.83876 43.9701 1.82342 44.0774 1.85409C44.1081 1.85409 44.1694 1.88476 44.2614 1.94609L46.0784 3.00409L45.6184 0.957089C45.6031 0.895755 45.5954 0.857422 45.5954 0.842089C45.5954 0.811423 45.5954 0.788423 45.5954 0.77309C45.5954 0.650423 45.6414 0.535423 45.7334 0.428089C45.8408 0.320756 45.9634 0.26709 46.1014 0.26709H47.7804C47.9184 0.26709 48.0334 0.320756 48.1254 0.428089C48.2328 0.535423 48.2864 0.650423 48.2864 0.77309C48.2864 0.788423 48.2864 0.811423 48.2864 0.842089C48.2864 0.857422 48.2788 0.895755 48.2634 0.957089L47.7804 3.02709L49.6204 1.94609C49.7278 1.88476 49.7891 1.85409 49.8044 1.85409C49.9271 1.82342 50.0498 1.83876 50.1724 1.90009C50.3104 1.96142 50.3948 2.05342 50.4254 2.17609L50.9544 3.76309C50.9851 3.90109 50.9698 4.03909 50.9084 4.17709C50.8471 4.29976 50.7551 4.37642 50.6324 4.40709C50.6171 4.40709 50.5941 4.41476 50.5634 4.43009C50.5481 4.43009 50.5098 4.43776 50.4484 4.45309L48.3324 4.66009L49.9194 6.04009C50.0114 6.13209 50.0574 6.18576 50.0574 6.20109C50.1341 6.29309 50.1648 6.41576 50.1494 6.56909C50.1341 6.70709 50.0651 6.81442 49.9424 6.89109L48.6084 7.88009C48.4858 7.94142 48.3554 7.96442 48.2174 7.94909C48.0794 7.93376 47.9721 7.87242 47.8954 7.76509C47.8954 7.74976 47.8878 7.73442 47.8724 7.71909C47.8571 7.68842 47.8341 7.65009 47.8034 7.60409L46.9524 5.64909L46.1014 7.60409C46.0861 7.65009 46.0631 7.68842 46.0324 7.71909C46.0171 7.73442 46.0018 7.74976 45.9864 7.76509C45.9251 7.87242 45.8178 7.93376 45.6644 7.94909C45.5264 7.96442 45.3961 7.94142 45.2734 7.88009Z" fill="white" fill-opacity="0.9"/>
</svg>
