<svg width="29" height="44" viewBox="0 0 29 44" fill="none" xmlns="http://www.w3.org/2000/svg">
<path d="M5.69009 32.6199C5.69009 32.461 5.66887 32.4331 5.69009 32.6199C6.04604 35.7528 8.7053 38.1866 11.9333 38.1866C15.4037 38.1866 18.217 35.3733 18.217 31.903V10.166H23.5053V31.903C23.5053 38.294 18.3243 43.4749 11.9333 43.4749C5.77488 43.4749 0.739919 38.6641 0.381716 32.5957L0.361328 30.7458C0.361328 29.8097 1.12019 29.0508 2.05629 29.0508C4.04083 29.0508 5.69009 30.6354 5.69009 32.6199Z" fill="url(#paint0_linear_2185_13112)"/>
<path fill-rule="evenodd" clip-rule="evenodd" d="M21.9184 1.36709C21.3345 0.783259 20.388 0.783257 19.8041 1.36709L14.5163 6.65497C13.3815 7.7897 13.3815 9.62946 14.5163 10.7642C14.9701 11.2181 15.7061 11.2181 16.1599 10.7642L18.2168 8.70732V16.1094C18.2168 18.7366 17.4021 20.5873 16.3121 21.7564C15.2251 22.9223 13.7079 23.5842 11.9331 23.5842C10.1583 23.5842 8.64119 22.9223 7.55418 21.7564C6.46418 20.5872 5.64944 18.7366 5.64944 16.1094V11.5168C5.64944 9.38247 3.91924 7.65226 1.78492 7.65226C0.998595 7.65226 0.361151 8.2897 0.361151 9.07603V16.1094C0.361151 19.8574 1.54513 23.0661 3.68622 25.3626C5.83034 27.6623 8.77705 28.8725 11.9331 28.8725C15.0892 28.8725 18.0359 27.6623 20.18 25.3626C22.3211 23.0661 23.5051 19.8574 23.5051 16.1094V8.70674L25.5625 10.7642C26.0164 11.2181 26.7523 11.2181 27.2062 10.7642C28.341 9.62946 28.341 7.7897 27.2062 6.65497L21.9184 1.36709Z" fill="url(#paint1_linear_2185_13112)"/>
<defs>
<linearGradient id="paint0_linear_2185_13112" x1="11.9329" y1="26.4736" x2="11.9329" y2="45.4475" gradientUnits="userSpaceOnUse">
<stop stop-color="white" stop-opacity="0.6"/>
<stop offset="1" stop-color="white" stop-opacity="0.7"/>
</linearGradient>
<linearGradient id="paint1_linear_2185_13112" x1="14.2094" y1="0.929199" x2="14.2094" y2="28.8725" gradientUnits="userSpaceOnUse">
<stop stop-color="white"/>
<stop offset="1" stop-color="#FAEAFF"/>
</linearGradient>
</defs>
</svg>
