<svg width="101" height="101" viewBox="0 0 101 101" fill="none" xmlns="http://www.w3.org/2000/svg">
<path d="M9.11415 50.3899C9.11416 27.3449 27.7958 8.66331 50.8408 8.66331C73.8857 8.66331 92.5674 27.345 92.5674 50.3899C92.5674 73.4349 73.8857 92.1165 50.8408 92.1165C27.7958 92.1165 9.11415 73.4349 9.11415 50.3899Z" fill="url(#paint0_linear_2316_14750)"/>
<path fill-rule="evenodd" clip-rule="evenodd" d="M0.84084 50.3903C0.840842 22.776 23.2266 0.390267 50.8408 0.39027C78.4551 0.390272 100.841 22.776 100.841 50.3903C100.841 78.0045 78.4551 100.39 50.8408 100.39C23.2266 100.39 0.840838 78.0045 0.84084 50.3903ZM50.8408 5.32148C25.95 5.32147 5.77205 25.4995 5.77205 50.3903C5.77204 75.2811 25.95 95.459 50.8408 95.4591C75.7316 95.4591 95.9096 75.2811 95.9096 50.3903C95.9096 25.4995 75.7316 5.32148 50.8408 5.32148Z" fill="url(#paint1_linear_2316_14750)"/>
<path d="M44.0231 61.1436C44.0019 60.9568 44.0231 60.9846 44.0231 61.1436C44.379 64.2764 47.0383 66.7103 50.2663 66.7103C53.7367 66.7103 56.55 63.897 56.55 60.4266V38.6897H61.8383V60.4266C61.8383 66.8177 56.6573 71.9986 50.2663 71.9986C44.1079 71.9986 39.0729 67.1878 38.7147 61.1194L38.6943 59.2695C38.6943 58.3334 39.4532 57.5745 40.3893 57.5745C42.3738 57.5745 44.0231 59.159 44.0231 61.1436Z" fill="url(#paint2_linear_2316_14750)"/>
<path fill-rule="evenodd" clip-rule="evenodd" d="M60.2516 29.8906C59.6677 29.3068 58.7212 29.3068 58.1373 29.8906L52.8494 35.1785C51.7147 36.3132 51.7147 38.153 52.8494 39.2877C53.3033 39.7416 54.0392 39.7416 54.4931 39.2877L56.55 37.2309V44.633C56.55 47.2601 55.7353 49.1108 54.6453 50.2799C53.5582 51.4458 52.0411 52.1078 50.2663 52.1078C48.4915 52.1078 46.9744 51.4458 45.8874 50.2799C44.7974 49.1108 43.9826 47.2601 43.9826 44.633V40.0403C43.9826 37.906 42.2524 36.1758 40.1181 36.1758C39.3318 36.1758 38.6943 36.8132 38.6943 37.5996V44.633C38.6943 48.381 39.8783 51.5896 42.0194 53.8861C44.1635 56.1859 47.1102 57.3961 50.2663 57.3961C53.4224 57.3961 56.3691 56.1859 58.5132 53.8861C60.6543 51.5897 61.8383 48.381 61.8383 44.633V37.2303L63.8957 39.2877C64.3496 39.7416 65.0855 39.7416 65.5394 39.2877C66.6741 38.153 66.6741 36.3132 65.5394 35.1785L60.2516 29.8906Z" fill="url(#paint3_linear_2316_14750)"/>
<defs>
<linearGradient id="paint0_linear_2316_14750" x1="50.8408" y1="92.1165" x2="50.8408" y2="8.66331" gradientUnits="userSpaceOnUse">
<stop stop-color="#DE80FF"/>
<stop offset="1" stop-color="#D354FF"/>
</linearGradient>
<linearGradient id="paint1_linear_2316_14750" x1="95.9096" y1="96.9718" x2="76.0795" y2="49.4615" gradientUnits="userSpaceOnUse">
<stop stop-color="#E49AFF"/>
<stop offset="1" stop-color="#D354FF"/>
</linearGradient>
<linearGradient id="paint2_linear_2316_14750" x1="50.2659" y1="54.9973" x2="50.2659" y2="73.9712" gradientUnits="userSpaceOnUse">
<stop stop-color="white" stop-opacity="0.6"/>
<stop offset="1" stop-color="white" stop-opacity="0.7"/>
</linearGradient>
<linearGradient id="paint3_linear_2316_14750" x1="52.5424" y1="29.4528" x2="52.5424" y2="57.3961" gradientUnits="userSpaceOnUse">
<stop stop-color="white"/>
<stop offset="1" stop-color="#FAEAFF"/>
</linearGradient>
</defs>
</svg>
